<?xml version="1.0" encoding="UTF-8" standalone="no"?>
<svg
   xmlns:dc="http://purl.org/dc/elements/1.1/"
   xmlns:cc="http://creativecommons.org/ns#"
   xmlns:rdf="http://www.w3.org/1999/02/22-rdf-syntax-ns#"
   xmlns:svg="http://www.w3.org/2000/svg"
   xmlns="http://www.w3.org/2000/svg"
   viewBox="0 0 68 116"
   height="116"
   width="68"
   xml:space="preserve"
   version="1.1"
   id="svg2"><metadata
     id="metadata8"><rdf:RDF><cc:Work
         rdf:about=""><dc:format>image/svg+xml</dc:format><dc:type
           rdf:resource="http://purl.org/dc/dcmitype/StillImage" /></cc:Work></rdf:RDF></metadata><defs
     id="defs6" /><g
     transform="matrix(1.3333333,0,0,-1.3333333,0,116)"
     id="g10"><g
       transform="scale(0.1)"
       id="g12"><path
         id="path14"
         style="fill:#ffffff;fill-opacity:1;fill-rule:evenodd;stroke:none"
         d="m 398.863,649.727 3.77,-6.524 9.996,1.367 3.715,-6.437 -6.18,-7.977 7.484,-12.961 9.997,1.367 3.714,-6.437 -6.179,-7.977 3.715,-6.437 9.742,5.625 2.722,10.156 11.891,-1.719 -16.871,29.227 -8.176,-4.719 -3.765,6.52 8.171,4.722 -5.621,9.743 6.52,3.765 5.625,-9.746 8.09,4.672 3.769,-6.519 -8.09,-4.672 16.871,-29.227 c 2.028,3.922 2.204,7.434 4.372,11.109 l 10.242,-2.671 9.742,5.621 -3.719,6.441 -10.078,-1.418 -3.719,6.441 6.266,8.024 -7.484,12.961 -10.079,-1.418 -3.718,6.441 6.265,8.024 -3.761,6.519 -55.239,-31.886" /><path
         id="path16"
         style="fill:none;stroke:#231f20;stroke-width:1.90665996;stroke-linecap:butt;stroke-linejoin:miter;stroke-miterlimit:2.61310005;stroke-dasharray:none;stroke-opacity:1"
         d="m 398.863,649.727 3.77,-6.524 9.996,1.367 3.715,-6.437 -6.18,-7.977 7.484,-12.961 9.997,1.367 3.714,-6.437 -6.179,-7.977 3.715,-6.437 9.742,5.625 2.722,10.156 11.891,-1.719 -16.871,29.227 -8.176,-4.719 -3.765,6.52 8.171,4.722 -5.621,9.743 6.52,3.765 5.625,-9.746 8.09,4.672 3.769,-6.519 -8.09,-4.672 16.871,-29.227 c 2.028,3.922 2.204,7.434 4.372,11.109 l 10.242,-2.671 9.742,5.621 -3.719,6.441 -10.078,-1.418 -3.719,6.441 6.266,8.024 -7.484,12.961 -10.079,-1.418 -3.718,6.441 6.265,8.024 -3.761,6.519 -55.239,-31.886 z" /><path
         id="path18"
         style="fill:#ffffff;fill-opacity:1;fill-rule:evenodd;stroke:none"
         d="M 398.32,648.879 106.668,480.605 c 4.312,-2.132 7.957,-5.203 10.434,-9.496 7.722,-13.375 3.082,-30.695 -10.29,-38.418 -11.0659,-6.386 -24.8159,-4.308 -33.6128,4.262 -1.3789,-1.234 -2.8203,-2.176 -4.4687,-3.129 -11.6407,-6.722 -26.3633,-4.105 -34.9805,5.672 -0.668,-0.934 -1.5977,-1.805 -2.6719,-2.422 -3.6328,-2.097 -7.8711,-1.242 -9.6797,1.895 -1.8125,3.136 -0.4375,7.234 3.1954,9.332 1.0742,0.621 2.2421,1.074 3.4374,1.101 -4.0781,12.399 0.9336,26.41 12.5782,33.133 1.5664,0.903 3.2304,1.645 4.8242,2.125 -3.0703,11.988 1.957,25.02 13.1016,31.453 13.375,7.723 30.8281,3.043 38.5507,-10.328 2.4297,-4.211 3.3591,-9.066 3.0511,-13.871 l 291.984,168.465 72.734,41.996 c 9.743,5.625 16.274,-5.687 6.532,-11.309 L 398.32,648.879 Z M 76.0508,476.246 c -4.0703,5.137 -10.4805,8.813 -18.1563,9.332 -1.0156,1.949 -1.4961,4.309 -1.4257,6.664 -0.0626,8.879 7.2343,16.067 16.1601,16.047 8.8477,-0.066 15.9883,-7.285 16.0469,-16.164 -0.0469,-7.734 -5.4336,-14.039 -12.625,-15.879 z m 5.0508,-8.75 c 2.4179,-6.09 2.3906,-13.48 -0.9961,-20.391 1.1797,-1.851 2.9804,-3.449 5.0586,-4.566 7.6562,-4.496 17.5309,-1.766 21.9769,5.973 4.367,7.699 1.687,17.488 -5.973,21.98 -6.7227,3.828 -14.875,2.313 -20.0664,-2.996 z m -26.2422,6.754 c -8.8477,0.066 -16.1016,-7.203 -16.168,-16.047 0.0664,-8.883 7.25,-16.18 16.0508,-16.164 8.9258,-0.019 16.2226,7.164 16.2461,16.094 -0.0195,8.797 -7.2031,16.097 -16.1289,16.117" /><path
         id="path20"
         style="fill:none;stroke:#231f20;stroke-width:1.90665996;stroke-linecap:butt;stroke-linejoin:miter;stroke-miterlimit:2.61310005;stroke-dasharray:none;stroke-opacity:1"
         d="M 398.32,648.879 106.668,480.605 c 4.312,-2.132 7.957,-5.203 10.434,-9.496 7.722,-13.375 3.082,-30.695 -10.29,-38.418 -11.0659,-6.386 -24.8159,-4.308 -33.6128,4.262 -1.3789,-1.234 -2.8203,-2.176 -4.4687,-3.129 -11.6407,-6.722 -26.3633,-4.105 -34.9805,5.672 -0.668,-0.934 -1.5977,-1.805 -2.6719,-2.422 -3.6328,-2.097 -7.8711,-1.242 -9.6797,1.895 -1.8125,3.136 -0.4375,7.234 3.1954,9.332 1.0742,0.621 2.2421,1.074 3.4374,1.101 -4.0781,12.399 0.9336,26.41 12.5782,33.133 1.5664,0.903 3.2304,1.645 4.8242,2.125 -3.0703,11.988 1.957,25.02 13.1016,31.453 13.375,7.723 30.8281,3.043 38.5507,-10.328 2.4297,-4.211 3.3591,-9.066 3.0511,-13.871 l 291.984,168.465 72.734,41.996 c 9.743,5.625 16.274,-5.687 6.532,-11.309 L 398.32,648.879 Z M 76.0508,476.246 c -4.0703,5.137 -10.4805,8.813 -18.1563,9.332 -1.0156,1.949 -1.4961,4.309 -1.4257,6.664 -0.0626,8.879 7.2343,16.067 16.1601,16.047 8.8477,-0.066 15.9883,-7.285 16.0469,-16.164 -0.0469,-7.734 -5.4336,-14.039 -12.625,-15.879 z m 5.0508,-8.75 c 2.4179,-6.09 2.3906,-13.48 -0.9961,-20.391 1.1797,-1.851 2.9804,-3.449 5.0586,-4.566 7.6562,-4.496 17.5309,-1.766 21.9769,5.973 4.367,7.699 1.687,17.488 -5.973,21.98 -6.7227,3.828 -14.875,2.313 -20.0664,-2.996 z m -26.2422,6.754 c -8.8477,0.066 -16.1016,-7.203 -16.168,-16.047 0.0664,-8.883 7.25,-16.18 16.0508,-16.164 8.9258,-0.019 16.2226,7.164 16.2461,16.094 -0.0195,8.797 -7.2031,16.097 -16.1289,16.117 z" /><path
         id="path22"
         style="fill:#ffffff;fill-opacity:1;fill-rule:evenodd;stroke:none"
         d="m 111.824,507.352 0,0 c -3.133,-1.809 -4.187,-5.903 -2.347,-9.094 l 8.316,-14.399 c 1.84,-3.191 5.914,-4.324 9.043,-2.515 l 0,0 c 3.137,1.808 4.191,5.902 2.348,9.094 l -8.313,14.398 c -1.844,3.195 -5.914,4.324 -9.047,2.516" /><g
         transform="matrix(0.365727,-0.633458,-0.634492,-0.366324,0,0)"
         id="g24"><path
           id="path26"
           style="fill:none;stroke:#231f20;stroke-width:2.50029993;stroke-linecap:butt;stroke-linejoin:miter;stroke-miterlimit:2.61310005;stroke-dasharray:none;stroke-opacity:1"
           d="m -524.253,-478.427 0,0 c -10e-4,4.937 4.125,8.978 9.162,8.981 l 22.732,-0.004 c 5.036,0.003 9.162,-4.04 9.16,-8.972 l 0,0 c 0.003,-4.942 -4.123,-8.983 -9.162,-8.981 l -22.73,-10e-4 c -5.043,-10e-4 -9.162,4.04 -9.162,8.977 z" /></g><path
         id="path28"
         style="fill:#ffffff;fill-opacity:1;fill-rule:evenodd;stroke:none"
         d="m 127.777,649.727 -3.769,-6.524 -9.996,1.367 -3.719,-6.437 6.184,-7.977 -7.485,-12.961 -9.9959,1.367 -3.7149,-6.437 6.1798,-7.977 -3.7149,-6.437 -9.7422,5.625 -2.7227,10.156 -11.8906,-1.719 16.8711,29.227 8.1758,-4.719 3.7655,6.52 -8.1718,4.722 5.6211,9.743 -6.5234,3.765 -5.6211,-9.746 -8.0898,4.672 -3.7696,-6.519 8.0899,-4.672 -16.8711,-29.227 c -2.0274,3.922 -2.2031,7.434 -4.375,11.109 l -10.2383,-2.671 -9.7422,5.621 3.7188,6.441 10.0781,-1.418 3.7187,6.441 -6.2656,8.024 7.4805,12.961 10.082,-1.418 3.7188,6.441 -6.2657,8.024 3.7618,6.519 55.2379,-31.886" /><path
         id="path30"
         style="fill:none;stroke:#231f20;stroke-width:1.90665996;stroke-linecap:butt;stroke-linejoin:miter;stroke-miterlimit:2.61310005;stroke-dasharray:none;stroke-opacity:1"
         d="m 127.777,649.727 -3.769,-6.524 -9.996,1.367 -3.719,-6.437 6.184,-7.977 -7.485,-12.961 -9.9959,1.367 -3.7149,-6.437 6.1798,-7.977 -3.7149,-6.437 -9.7422,5.625 -2.7227,10.156 -11.8906,-1.719 16.8711,29.227 8.1758,-4.719 3.7655,6.52 -8.1718,4.722 5.6211,9.743 -6.5234,3.765 -5.6211,-9.746 -8.0898,4.672 -3.7696,-6.519 8.0899,-4.672 -16.8711,-29.227 c -2.0274,3.922 -2.2031,7.434 -4.375,11.109 l -10.2383,-2.671 -9.7422,5.621 3.7188,6.441 10.0781,-1.418 3.7187,6.441 -6.2656,8.024 7.4805,12.961 10.082,-1.418 3.7188,6.441 -6.2657,8.024 3.7618,6.519 55.2379,-31.886 z" /><path
         id="path32"
         style="fill:#ffffff;fill-opacity:1;fill-rule:evenodd;stroke:none"
         d="M 128.32,648.879 419.973,480.605 c -4.313,-2.132 -7.957,-5.203 -10.438,-9.496 -7.719,-13.375 -3.078,-30.695 10.293,-38.418 11.067,-6.386 24.817,-4.308 33.613,4.262 1.379,-1.234 2.821,-2.176 4.469,-3.129 11.641,-6.722 26.363,-4.105 34.981,5.672 0.668,-0.934 1.597,-1.805 2.671,-2.422 3.633,-2.097 7.872,-1.242 9.68,1.895 1.813,3.136 0.438,7.234 -3.195,9.332 -1.074,0.621 -2.242,1.074 -3.438,1.101 4.079,12.399 -0.933,26.41 -12.578,33.133 -1.566,0.903 -3.23,1.645 -4.824,2.125 3.066,11.988 -1.957,25.02 -13.105,31.453 -13.372,7.723 -30.825,3.043 -38.547,-10.328 -2.43,-4.211 -3.364,-9.066 -3.051,-13.871 L 134.52,660.379 61.7852,702.375 C 52.043,708 45.5117,696.688 55.2539,691.066 L 128.32,648.879 Z M 450.59,476.246 c 4.07,5.137 10.48,8.813 18.156,9.332 1.016,1.949 1.496,4.309 1.426,6.664 0.062,8.879 -7.234,16.067 -16.164,16.047 -8.844,-0.066 -15.985,-7.285 -16.047,-16.164 0.051,-7.734 5.437,-14.039 12.629,-15.879 z m -5.055,-8.75 c -2.414,-6.09 -2.387,-13.48 1,-20.391 -1.18,-1.851 -2.984,-3.449 -5.058,-4.566 -7.657,-4.496 -17.532,-1.766 -21.981,5.973 -4.363,7.699 -1.684,17.488 5.977,21.98 6.722,3.828 14.875,2.313 20.062,-2.996 z m 26.246,6.754 c 8.848,0.066 16.098,-7.203 16.168,-16.047 -0.066,-8.883 -7.25,-16.18 -16.051,-16.164 -8.925,-0.019 -16.226,7.164 -16.246,16.094 0.02,8.797 7.203,16.097 16.129,16.117" /><path
         id="path34"
         style="fill:none;stroke:#231f20;stroke-width:1.90665996;stroke-linecap:butt;stroke-linejoin:miter;stroke-miterlimit:2.61310005;stroke-dasharray:none;stroke-opacity:1"
         d="M 128.32,648.879 419.973,480.605 c -4.313,-2.132 -7.957,-5.203 -10.438,-9.496 -7.719,-13.375 -3.078,-30.695 10.293,-38.418 11.067,-6.386 24.817,-4.308 33.613,4.262 1.379,-1.234 2.821,-2.176 4.469,-3.129 11.641,-6.722 26.363,-4.105 34.981,5.672 0.668,-0.934 1.597,-1.805 2.671,-2.422 3.633,-2.097 7.872,-1.242 9.68,1.895 1.813,3.136 0.438,7.234 -3.195,9.332 -1.074,0.621 -2.242,1.074 -3.438,1.101 4.079,12.399 -0.933,26.41 -12.578,33.133 -1.566,0.903 -3.23,1.645 -4.824,2.125 3.066,11.988 -1.957,25.02 -13.105,31.453 -13.372,7.723 -30.825,3.043 -38.547,-10.328 -2.43,-4.211 -3.364,-9.066 -3.051,-13.871 L 134.52,660.379 61.7852,702.375 C 52.043,708 45.5117,696.688 55.2539,691.066 L 128.32,648.879 Z M 450.59,476.246 c 4.07,5.137 10.48,8.813 18.156,9.332 1.016,1.949 1.496,4.309 1.426,6.664 0.062,8.879 -7.234,16.067 -16.164,16.047 -8.844,-0.066 -15.985,-7.285 -16.047,-16.164 0.051,-7.734 5.437,-14.039 12.629,-15.879 z m -5.055,-8.75 c -2.414,-6.09 -2.387,-13.48 1,-20.391 -1.18,-1.851 -2.984,-3.449 -5.058,-4.566 -7.657,-4.496 -17.532,-1.766 -21.981,5.973 -4.363,7.699 -1.684,17.488 5.977,21.98 6.722,3.828 14.875,2.313 20.062,-2.996 z m 26.246,6.754 c 8.848,0.066 16.098,-7.203 16.168,-16.047 -0.066,-8.883 -7.25,-16.18 -16.051,-16.164 -8.925,-0.019 -16.226,7.164 -16.246,16.094 0.02,8.797 7.203,16.097 16.129,16.117 z" /><path
         id="path36"
         style="fill:#ffffff;fill-opacity:1;fill-rule:evenodd;stroke:none"
         d="m 414.816,507.352 0,0 c 3.133,-1.809 4.188,-5.903 2.344,-9.094 l -8.312,-14.399 c -1.844,-3.191 -5.914,-4.324 -9.047,-2.515 l 0,0 c -3.133,1.808 -4.188,5.902 -2.344,9.094 l 8.313,14.398 c 1.843,3.195 5.914,4.324 9.046,2.516" /><g
         transform="matrix(-0.365727,-0.633458,0.634492,-0.366324,0,0)"
         id="g38"><path
           id="path40"
           style="fill:none;stroke:#231f20;stroke-width:2.50029993;stroke-linecap:butt;stroke-linejoin:miter;stroke-miterlimit:2.61310005;stroke-dasharray:none;stroke-opacity:1"
           d="m -884.249,144.088 0,0 c 0,4.937 4.126,8.978 9.164,8.977 l 22.73,0 c 5.039,-0.001 9.163,-4.04 9.163,-8.977 l 0,0 c 0,-4.937 -4.126,-8.978 -9.165,-8.976 l -22.73,-0.001 c -5.043,-10e-4 -9.162,4.04 -9.162,8.977 z" /></g><path
         id="path42"
         style="fill:#ffffff;fill-opacity:1;fill-rule:evenodd;stroke:none"
         d="m 177.715,281.148 c 0.859,-1.902 0.668,-3.812 -1.715,-3.238 -20.977,9.344 -33.082,17.637 -49.859,33.652 -1.336,1.813 0.281,2.766 2.093,2.954 l 12.016,2.195 18.875,19.637 c 8.195,-7.34 15.918,-13.153 25.645,-18.684 l -9.727,-25.836 2.672,-10.68" /><path
         id="path44"
         style="fill:none;stroke:#231f20;stroke-width:1.90665996;stroke-linecap:butt;stroke-linejoin:miter;stroke-miterlimit:2.61310005;stroke-dasharray:none;stroke-opacity:1"
         d="m 177.715,281.148 c 0.859,-1.902 0.668,-3.812 -1.715,-3.238 -20.977,9.344 -33.082,17.637 -49.859,33.652 -1.336,1.813 0.281,2.766 2.093,2.954 l 12.016,2.195 18.875,19.637 c 8.195,-7.34 15.918,-13.153 25.645,-18.684 l -9.727,-25.836 2.672,-10.68 z" /><path
         id="path46"
         style="fill:#ffffff;fill-opacity:1;fill-rule:evenodd;stroke:none"
         d="m 367.465,335.984 18.973,-19.449 11.535,-2 c 1.808,-0.191 3.429,-1.144 2.097,-2.957 -16.781,-16.016 -28.886,-24.308 -49.859,-33.652 -2.383,-0.571 -2.574,1.336 -2,3.051 l 2.953,11.156 -9.246,25.164 c 9.246,5.914 16.586,11.726 25.547,18.687" /><path
         id="path48"
         style="fill:none;stroke:#231f20;stroke-width:1.90665996;stroke-linecap:butt;stroke-linejoin:miter;stroke-miterlimit:2.61310005;stroke-dasharray:none;stroke-opacity:1"
         d="m 367.465,335.984 18.973,-19.449 11.535,-2 c 1.808,-0.191 3.429,-1.144 2.097,-2.957 -16.781,-16.016 -28.886,-24.308 -49.859,-33.652 -2.383,-0.571 -2.574,1.336 -2,3.051 l 2.953,11.156 -9.246,25.164 c 9.246,5.914 16.586,11.726 25.547,18.687 z" /><path
         id="path50"
         style="fill:#ffffff;fill-opacity:1;fill-rule:evenodd;stroke:none"
         d="m 140.832,316.715 26.215,26.601 c -29.359,24.5 -48.621,59.868 -48.621,103.532 l -42.5158,0 C 78.3867,394.414 103.27,349.32 140.832,316.715" /><path
         id="path52"
         style="fill:none;stroke:#231f20;stroke-width:1.90665996;stroke-linecap:butt;stroke-linejoin:miter;stroke-miterlimit:2.61310005;stroke-dasharray:none;stroke-opacity:1"
         d="m 140.832,316.715 26.215,26.601 c -29.359,24.5 -48.621,59.868 -48.621,103.532 l -42.5158,0 C 78.3867,394.414 103.27,349.32 140.832,316.715 Z" /><path
         id="path54"
         style="fill:#ffffff;fill-opacity:1;fill-rule:evenodd;stroke:none"
         d="m 386.41,316.434 -26.504,26.882 c 29.364,24.5 48.617,59.868 48.617,103.532 l 42.711,0 C 448.562,394.605 424.066,348.367 386.41,316.434" /><path
         id="path56"
         style="fill:none;stroke:#231f20;stroke-width:1.90665996;stroke-linecap:butt;stroke-linejoin:miter;stroke-miterlimit:2.61310005;stroke-dasharray:none;stroke-opacity:1"
         d="m 386.41,316.434 -26.504,26.882 c 29.364,24.5 48.617,59.868 48.617,103.532 l 42.711,0 C 448.562,394.605 424.066,348.367 386.41,316.434 Z" /><path
         id="path58"
         style="fill:#ffffff;fill-opacity:1;fill-rule:evenodd;stroke:none"
         d="m 350.52,291.648 c -26.79,-14.492 -56.723,-21.453 -88.567,-21.453 -31.84,0 -61.488,6.961 -86.945,21.453 l 13.445,36.704 c 21.926,-11.633 47.477,-18.59 74.168,-18.59 26.789,0 52.336,6.957 74.266,18.59 l 13.633,-36.704" /><path
         id="path60"
         style="fill:none;stroke:#231f20;stroke-width:1.90665996;stroke-linecap:butt;stroke-linejoin:miter;stroke-miterlimit:2.61310005;stroke-dasharray:none;stroke-opacity:1"
         d="m 350.52,291.648 c -26.79,-14.492 -56.723,-21.453 -88.567,-21.453 -31.84,0 -61.488,6.961 -86.945,21.453 l 13.445,36.704 c 21.926,-11.633 47.477,-18.59 74.168,-18.59 26.789,0 52.336,6.957 74.266,18.59 l 13.633,-36.704 z" /><path
         id="path62"
         style="fill:#231f20;fill-opacity:1;fill-rule:evenodd;stroke:none"
         d="m 387.102,316.375 4.957,5.148 8.293,-8.39 c -0.954,0.668 -1.524,0.762 -2.286,0.762 l -10.964,2.48" /><path
         id="path64"
         style="fill:none;stroke:#231f20;stroke-width:1.90665996;stroke-linecap:butt;stroke-linejoin:miter;stroke-miterlimit:2.61310005;stroke-dasharray:none;stroke-opacity:1"
         d="m 387.102,316.375 4.957,5.148 8.293,-8.39 c -0.954,0.668 -1.524,0.762 -2.286,0.762 l -10.964,2.48 z" /><path
         id="path66"
         style="fill:#231f20;fill-opacity:1;fill-rule:evenodd;stroke:none"
         d="m 350.492,290.73 -6.293,-2.859 4.008,-10.203 c -0.285,1.242 -0.574,2.004 0.188,2.672 l 2.097,10.39" /><path
         id="path68"
         style="fill:none;stroke:#231f20;stroke-width:1.90665996;stroke-linecap:butt;stroke-linejoin:miter;stroke-miterlimit:2.61310005;stroke-dasharray:none;stroke-opacity:1"
         d="m 350.492,290.73 -6.293,-2.859 4.008,-10.203 c -0.285,1.242 -0.574,2.004 0.188,2.672 l 2.097,10.39 z" /><path
         id="path70"
         style="fill:#231f20;fill-opacity:1;fill-rule:evenodd;stroke:none"
         d="m 174.855,291.305 6.864,-3.434 -4.004,-10.203 c 0.285,1.242 0.57,2.004 -0.192,2.672 l -2.668,10.965" /><path
         id="path72"
         style="fill:none;stroke:#231f20;stroke-width:1.90665996;stroke-linecap:butt;stroke-linejoin:miter;stroke-miterlimit:2.61310005;stroke-dasharray:none;stroke-opacity:1"
         d="m 174.855,291.305 6.864,-3.434 -4.004,-10.203 c 0.285,1.242 0.57,2.004 -0.192,2.672 l -2.668,10.965 z" /><path
         id="path74"
         style="fill:#231f20;fill-opacity:1;fill-rule:evenodd;stroke:none"
         d="m 139.008,316.375 -5.145,5.148 -8.297,-8.39 c 0.954,0.668 1.528,0.762 2.289,0.762 l 11.153,2.48" /><path
         id="path76"
         style="fill:none;stroke:#231f20;stroke-width:1.90665996;stroke-linecap:butt;stroke-linejoin:miter;stroke-miterlimit:2.61310005;stroke-dasharray:none;stroke-opacity:1"
         d="m 139.008,316.375 -5.145,5.148 -8.297,-8.39 c 0.954,0.668 1.528,0.762 2.289,0.762 l 11.153,2.48 z" /><path
         id="path78"
         style="fill:#ffffff;fill-opacity:1;fill-rule:evenodd;stroke:none"
         d="m 75.5,447.402 c 1.0469,-15.16 3.7188,-29.648 7.7227,-45.668 L 71.875,398.305 c -2.9531,11.82 -4.7656,37.277 3.625,49.097" /><path
         id="path80"
         style="fill:none;stroke:#231f20;stroke-width:1.90665996;stroke-linecap:butt;stroke-linejoin:miter;stroke-miterlimit:2.61310005;stroke-dasharray:none;stroke-opacity:1"
         d="m 75.5,447.402 c 1.0469,-15.16 3.7188,-29.648 7.7227,-45.668 L 71.875,398.305 c -2.9531,11.82 -4.7656,37.277 3.625,49.097 z" /><path
         id="path82"
         style="fill:#ffffff;fill-opacity:1;fill-rule:evenodd;stroke:none"
         d="m 443.609,402.039 10.961,-3.906 c 2.957,11.82 2.289,36.894 -3.336,48.902 -1.238,-14.965 -3.812,-29.933 -7.625,-44.996" /><path
         id="path84"
         style="fill:none;stroke:#231f20;stroke-width:1.90665996;stroke-linecap:butt;stroke-linejoin:miter;stroke-miterlimit:2.61310005;stroke-dasharray:none;stroke-opacity:1"
         d="m 443.609,402.039 10.961,-3.906 c 2.957,11.82 2.289,36.894 -3.336,48.902 -1.238,-14.965 -3.812,-29.933 -7.625,-44.996 z" /><path
         id="path86"
         style="fill:#231f20;fill-opacity:1;fill-rule:evenodd;stroke:none"
         d="m 219.223,308.895 -3.477,-8.594 -0.664,0.265 c 0.148,2.672 -0.34,4.946 -1.449,6.817 -1.113,1.871 -2.621,3.195 -4.528,3.969 -1.824,0.734 -3.546,0.832 -5.171,0.296 -1.625,-0.535 -3.063,-1.617 -4.301,-3.246 -1.246,-1.632 -2.262,-3.418 -3.039,-5.343 -0.946,-2.336 -1.496,-4.504 -1.66,-6.485 -0.157,-1.984 0.207,-3.636 1.101,-4.965 0.895,-1.324 2.192,-2.328 3.879,-3.007 0.586,-0.239 1.215,-0.418 1.883,-0.54 0.668,-0.124 1.375,-0.199 2.117,-0.218 l 2.051,5.066 c 0.39,0.961 0.574,1.61 0.558,1.942 -0.019,0.339 -0.191,0.699 -0.511,1.097 -0.324,0.395 -0.778,0.711 -1.367,0.949 l -0.629,0.254 0.273,0.664 11.852,-4.785 -0.274,-0.672 c -0.926,0.309 -1.601,0.438 -2.027,0.395 -0.426,-0.043 -0.824,-0.238 -1.192,-0.598 -0.203,-0.183 -0.48,-0.718 -0.839,-1.605 l -2.051,-5.071 c -1.836,-0.066 -3.668,0.063 -5.496,0.391 -1.824,0.328 -3.649,0.856 -5.453,1.59 -2.317,0.934 -4.114,2.023 -5.383,3.269 -1.278,1.247 -2.289,2.618 -3.051,4.118 -0.754,1.5 -1.199,3.019 -1.34,4.566 -0.172,1.996 0.16,4.02 0.985,6.066 1.484,3.672 4.027,6.247 7.625,7.739 3.601,1.488 7.351,1.445 11.261,-0.137 1.211,-0.488 2.262,-1.027 3.156,-1.613 0.489,-0.305 1.231,-0.922 2.231,-1.852 1.004,-0.926 1.609,-1.433 1.828,-1.519 0.332,-0.137 0.695,-0.137 1.082,-0.008 0.387,0.129 0.836,0.484 1.356,1.07 l 0.664,-0.265" /><path
         id="path88"
         style="fill:#231f20;fill-opacity:1;fill-rule:evenodd;stroke:none"
         d="m 231.074,291.477 -1.281,-7.254 c -0.25,-1.407 -0.316,-2.301 -0.207,-2.692 0.109,-0.398 0.355,-0.738 0.754,-1.031 0.39,-0.293 1.18,-0.543 2.367,-0.75 l -0.125,-0.707 -13.254,2.336 0.121,0.707 c 1.199,-0.211 2.031,-0.242 2.5,-0.098 0.461,0.149 0.813,0.387 1.047,0.715 0.238,0.324 0.477,1.188 0.727,2.586 l 2.961,16.809 c 0.246,1.398 0.312,2.297 0.211,2.687 -0.11,0.395 -0.364,0.742 -0.758,1.031 -0.395,0.293 -1.184,0.543 -2.367,0.754 l 0.125,0.703 12.031,-2.117 c 3.133,-0.554 5.386,-1.172 6.762,-1.863 1.374,-0.691 2.417,-1.699 3.124,-3.023 0.719,-1.325 0.93,-2.77 0.657,-4.34 -0.336,-1.907 -1.305,-3.368 -2.899,-4.368 -1.019,-0.636 -2.347,-1.015 -3.996,-1.128 l 4.676,-9.864 c 0.617,-1.277 1.074,-2.086 1.367,-2.429 0.449,-0.489 1.016,-0.809 1.703,-0.969 l -0.129,-0.703 -8.152,1.433 -6.266,13.278 -1.699,0.297 z m 2.238,12.699 -2,-11.344 1.086,-0.187 c 1.774,-0.317 3.125,-0.383 4.063,-0.215 0.934,0.168 1.727,0.629 2.379,1.39 0.652,0.758 1.101,1.817 1.34,3.184 0.347,1.969 0.144,3.508 -0.618,4.617 -0.753,1.102 -2.16,1.836 -4.21,2.199 l -2.04,0.356" /><path
         id="path90"
         style="fill:#231f20;fill-opacity:1;fill-rule:evenodd;stroke:none"
         d="m 269.234,284.516 -9.289,-0.164 -1.058,-2.579 c -0.348,-0.863 -0.516,-1.566 -0.504,-2.125 0.008,-0.734 0.316,-1.273 0.918,-1.613 0.351,-0.199 1.215,-0.34 2.586,-0.422 l 0.015,-0.715 -8.75,-0.152 -0.011,0.719 c 0.945,0.16 1.711,0.562 2.304,1.211 0.602,0.652 1.328,1.988 2.18,4.008 l 9.043,21.14 0.367,0.008 9.856,-21.398 c 0.941,-2.024 1.707,-3.297 2.297,-3.817 0.449,-0.39 1.074,-0.617 1.878,-0.664 l 0.008,-0.715 -12.719,-0.226 -0.011,0.715 0.523,0.011 c 1.024,0.02 1.738,0.172 2.145,0.465 0.281,0.211 0.418,0.512 0.41,0.902 -0.004,0.231 -0.047,0.469 -0.129,0.715 -0.027,0.114 -0.227,0.594 -0.605,1.442 l -1.454,3.254 z m -0.683,1.418 -4.078,8.988 -3.871,-9.125 7.949,0.137" /><path
         id="path92"
         style="fill:#231f20;fill-opacity:1;fill-rule:evenodd;stroke:none"
         d="m 305.648,308.344 0.122,-0.707 c -0.915,-0.325 -1.668,-0.973 -2.254,-1.957 -0.422,-0.727 -0.957,-2.368 -1.598,-4.91 l -5.426,-21.352 -0.633,-0.117 -12.511,19.027 c -1.508,2.293 -2.481,3.625 -2.918,3.992 -0.442,0.368 -1.172,0.52 -2.2,0.461 l -0.125,0.703 12.415,2.192 0.125,-0.711 -0.418,-0.067 c -1.122,-0.199 -1.864,-0.48 -2.219,-0.824 -0.258,-0.246 -0.36,-0.554 -0.293,-0.922 0.043,-0.226 0.137,-0.488 0.297,-0.781 0.16,-0.301 0.648,-1.074 1.472,-2.336 l 7.793,-11.914 3.098,12.383 c 0.363,1.492 0.574,2.484 0.633,2.984 0.054,0.496 0.054,0.907 -0.004,1.239 -0.063,0.382 -0.227,0.699 -0.481,0.961 -0.257,0.257 -0.597,0.425 -1.019,0.507 -0.586,0.121 -1.328,0.102 -2.234,-0.058 l -0.122,0.707 8.5,1.5" /><path
         id="path94"
         style="fill:#231f20;fill-opacity:1;fill-rule:evenodd;stroke:none"
         d="m 317.359,311.324 4.012,-9.929 0.481,0.199 c 1.55,0.625 2.472,1.566 2.777,2.816 0.301,1.25 0.168,2.863 -0.402,4.836 l 0.679,0.274 5.156,-12.766 -0.679,-0.277 c -0.707,1.328 -1.469,2.347 -2.289,3.046 -0.824,0.7 -1.598,1.082 -2.332,1.145 -0.735,0.059 -1.684,-0.152 -2.852,-0.617 l 2.778,-6.871 c 0.546,-1.348 0.933,-2.141 1.167,-2.395 0.239,-0.258 0.551,-0.414 0.938,-0.48 0.387,-0.063 0.934,0.039 1.629,0.324 l 1.453,0.59 c 2.277,0.918 3.895,2.183 4.836,3.793 0.949,1.609 1.285,3.613 1.012,6.011 l 0.668,0.27 2.035,-8.191 -21.078,-8.516 -0.274,0.664 0.813,0.328 c 0.707,0.281 1.226,0.641 1.558,1.067 0.243,0.293 0.367,0.679 0.367,1.152 0.02,0.344 -0.222,1.129 -0.714,2.348 l -6.485,16.043 c -0.441,1.101 -0.746,1.765 -0.91,1.996 -0.285,0.367 -0.641,0.605 -1.058,0.699 -0.59,0.156 -1.278,0.07 -2.075,-0.254 l -0.808,-0.32 -0.27,0.664 20.41,8.242 2.918,-7.211 -0.687,-0.277 c -1.059,1.625 -2.055,2.691 -2.996,3.203 -0.942,0.515 -2.059,0.718 -3.352,0.617 -0.762,-0.063 -2.062,-0.457 -3.91,-1.207 l -2.516,-1.016" /><path
         id="path96"
         style="fill:#231f20;fill-opacity:1;fill-rule:evenodd;stroke:none"
         d="m 384.711,361.906 20.848,0.184 -8.914,6.965 c -1.243,0.972 -2.227,1.449 -2.942,1.433 -0.973,-0.027 -1.902,-0.625 -2.781,-1.793 l -0.563,0.442 5.352,6.847 0.566,-0.441 c -0.574,-0.965 -0.89,-1.664 -0.945,-2.105 -0.059,-0.438 0.051,-0.899 0.324,-1.379 0.27,-0.489 0.895,-1.11 1.871,-1.875 l 17.258,-13.485 -0.406,-0.515 -28.207,-0.536 13.176,-10.296 c 1.191,-0.926 2.211,-1.286 3.054,-1.067 0.844,0.219 1.539,0.68 2.09,1.379 l 0.383,0.492 0.566,-0.441 -5.746,-7.356 -0.566,0.442 c 0.879,1.152 1.266,2.133 1.156,2.937 -0.101,0.809 -0.707,1.637 -1.812,2.5 l -14.625,11.426 -0.899,-0.008 c -0.894,-0.011 -1.558,-0.117 -1.988,-0.316 -0.438,-0.203 -0.914,-0.61 -1.426,-1.227 l -0.566,0.442 5.742,7.351" /><path
         id="path98"
         style="fill:#231f20;fill-opacity:1;fill-rule:evenodd;stroke:none"
         d="m 425.668,379.492 0.644,-0.312 -6.023,-12.36 -0.648,0.313 0.382,0.785 c 0.34,0.687 0.481,1.301 0.442,1.836 -0.016,0.383 -0.176,0.75 -0.496,1.105 -0.215,0.266 -0.914,0.684 -2.102,1.266 l -15.551,7.582 c -1.207,0.59 -1.996,0.891 -2.359,0.91 -0.363,0.02 -0.754,-0.109 -1.172,-0.387 -0.418,-0.277 -0.785,-0.75 -1.105,-1.41 l -0.383,-0.785 -0.649,0.313 6.028,12.363 0.648,-0.316 -0.383,-0.782 c -0.339,-0.687 -0.484,-1.301 -0.441,-1.84 0.016,-0.382 0.172,-0.753 0.484,-1.121 0.219,-0.261 0.918,-0.683 2.102,-1.261 l 15.555,-7.586 c 1.203,-0.586 1.996,-0.887 2.363,-0.903 0.367,-0.015 0.758,0.118 1.176,0.395 0.418,0.281 0.785,0.75 1.105,1.414 l 0.383,0.781" /><path
         id="path100"
         style="fill:#231f20;fill-opacity:1;fill-rule:evenodd;stroke:none"
         d="m 429.246,412.074 8.34,-4.086 -7.984,-21.945 -0.676,0.246 0.301,0.816 c 0.261,0.723 0.339,1.34 0.246,1.875 -0.055,0.375 -0.258,0.723 -0.61,1.047 -0.246,0.239 -0.984,0.586 -2.226,1.035 l -16.258,5.915 c -1.266,0.461 -2.078,0.679 -2.441,0.664 -0.368,-0.02 -0.743,-0.188 -1.129,-0.512 -0.383,-0.32 -0.7,-0.828 -0.954,-1.52 l -0.296,-0.816 -0.676,0.242 4.797,13.18 0.675,-0.246 -0.394,-1.074 c -0.262,-0.719 -0.34,-1.344 -0.246,-1.875 0.055,-0.375 0.258,-0.731 0.605,-1.063 0.239,-0.242 0.985,-0.586 2.219,-1.035 l 15.75,-5.731 c 1.27,-0.461 2.098,-0.679 2.496,-0.66 0.399,0.02 0.762,0.207 1.086,0.578 0.223,0.262 0.539,0.977 0.969,2.145 l 0.75,2.055 c 0.476,1.316 0.644,2.492 0.5,3.535 -0.145,1.043 -0.598,2.066 -1.36,3.062 -0.765,1.004 -2.019,2.141 -3.753,3.422 l 0.269,0.746" /><path
         id="path102"
         style="fill:#231f20;fill-opacity:1;fill-rule:evenodd;stroke:none"
         d="m 434.523,429.742 -2.351,-11.062 -3.93,0.832 2.356,11.062 3.925,-0.832" /><path
         id="path104"
         style="fill:#231f20;fill-opacity:1;fill-rule:evenodd;stroke:none"
         d="m 95.2305,419.012 -1.6133,9.152 -2.7188,0.645 c -0.9023,0.207 -1.6289,0.261 -2.1718,0.168 -0.7266,-0.129 -1.2071,-0.516 -1.4493,-1.161 -0.1445,-0.382 -0.1445,-1.257 -0.0117,-2.621 l -0.7031,-0.125 -1.5234,8.61 0.707,0.129 c 0.3008,-0.911 0.8242,-1.606 1.5586,-2.09 0.7344,-0.489 2.168,-1 4.3008,-1.531 l 22.3005,-5.614 0.067,-0.359 -19.5941,-13.094 c -1.8594,-1.246 -2.9961,-2.199 -3.418,-2.863 -0.3164,-0.504 -0.4375,-1.153 -0.3632,-1.957 l -0.7032,-0.125 -2.2109,12.531 0.7031,0.125 0.0899,-0.516 c 0.1796,-1.007 0.4414,-1.687 0.7968,-2.046 0.2539,-0.243 0.5704,-0.332 0.9532,-0.266 0.2265,0.043 0.457,0.121 0.6836,0.242 0.1093,0.043 0.5586,0.316 1.332,0.824 l 2.9883,1.942 z m 1.2968,0.898 8.2427,5.434 -9.6255,2.402 1.3828,-7.836" /><path
         id="path106"
         style="fill:#231f20;fill-opacity:1;fill-rule:evenodd;stroke:none"
         d="m 109.227,380.082 -8.93,-2.543 -8.7501,21.656 0.664,0.274 0.3243,-0.813 c 0.289,-0.707 0.6445,-1.226 1.0703,-1.558 0.2929,-0.243 0.6757,-0.368 1.1523,-0.368 0.3438,-0.019 1.125,0.223 2.3438,0.715 l 16.0434,6.485 c 1.246,0.504 2.003,0.886 2.261,1.14 0.258,0.258 0.422,0.637 0.496,1.133 0.071,0.496 -0.031,1.086 -0.308,1.774 l -0.328,0.808 0.664,0.27 5.258,-13.004 -0.668,-0.27 -0.426,1.063 c -0.289,0.703 -0.641,1.222 -1.067,1.554 -0.293,0.243 -0.683,0.372 -1.164,0.387 -0.343,0.016 -1.121,-0.226 -2.347,-0.715 l -15.5394,-6.285 c -1.2461,-0.5 -2.0078,-0.894 -2.293,-1.176 -0.2852,-0.285 -0.4258,-0.664 -0.4258,-1.156 0.0156,-0.344 0.2539,-1.09 0.7188,-2.242 l 0.8203,-2.031 c 0.5273,-1.293 1.1875,-2.282 1.9921,-2.961 0.805,-0.676 1.828,-1.133 3.063,-1.367 1.238,-0.235 2.929,-0.243 5.074,-0.028 l 0.301,-0.742" /><path
         id="path108"
         style="fill:#231f20;fill-opacity:1;fill-rule:evenodd;stroke:none"
         d="m 111.848,357.766 -0.618,-0.36 -6.878,11.91 0.617,0.36 0.437,-0.758 c 0.383,-0.66 0.805,-1.121 1.278,-1.391 0.324,-0.199 0.718,-0.269 1.191,-0.207 0.344,0.035 1.082,0.383 2.227,1.035 l 14.98,8.653 c 1.164,0.676 1.856,1.156 2.078,1.449 0.219,0.289 0.328,0.688 0.332,1.188 0,0.503 -0.183,1.074 -0.551,1.71 l -0.437,0.754 0.621,0.364 6.879,-11.914 -0.621,-0.356 -0.438,0.754 c -0.383,0.66 -0.804,1.125 -1.273,1.395 -0.324,0.199 -0.727,0.273 -1.203,0.222 -0.344,-0.035 -1.082,-0.375 -2.223,-1.035 l -14.98,-8.652 c -1.168,-0.676 -1.86,-1.164 -2.078,-1.457 -0.211,-0.297 -0.321,-0.696 -0.329,-1.196 0,-0.504 0.184,-1.074 0.555,-1.714 l 0.434,-0.754" /><path
         id="path110"
         style="fill:#231f20;fill-opacity:1;fill-rule:evenodd;stroke:none"
         d="m 147.617,352.098 -6.969,-5.325 -0.464,0.641 c 1.554,1.598 2.441,3.383 2.664,5.359 0.218,1.969 -0.172,3.649 -1.176,5.028 -0.774,1.07 -1.676,1.703 -2.695,1.914 -1.024,0.207 -1.911,0.043 -2.649,-0.5 -0.473,-0.34 -0.808,-0.754 -1.019,-1.238 -0.266,-0.661 -0.399,-1.5 -0.395,-2.52 0.008,-0.746 0.223,-2.324 0.637,-4.742 0.586,-3.375 0.648,-5.895 0.191,-7.551 -0.465,-1.648 -1.398,-2.984 -2.797,-4.004 -1.777,-1.293 -3.816,-1.707 -6.097,-1.258 -2.289,0.457 -4.211,1.754 -5.762,3.883 -0.488,0.672 -0.879,1.356 -1.18,2.051 -0.297,0.695 -0.586,1.629 -0.855,2.801 -0.16,0.656 -0.356,1.14 -0.59,1.468 -0.195,0.27 -0.512,0.485 -0.941,0.633 -0.426,0.153 -0.93,0.168 -1.497,0.043 l -0.421,0.582 8.035,5.836 0.422,-0.582 c -1.922,-2.101 -3.004,-4.242 -3.239,-6.418 -0.23,-2.172 0.207,-4.019 1.309,-5.535 0.848,-1.172 1.848,-1.871 2.988,-2.105 1.145,-0.235 2.141,-0.039 2.988,0.578 0.504,0.363 0.891,0.847 1.168,1.461 0.278,0.605 0.426,1.336 0.457,2.187 0.032,0.856 -0.121,2.215 -0.441,4.094 -0.453,2.625 -0.656,4.605 -0.601,5.937 0.054,1.336 0.328,2.528 0.824,3.586 0.496,1.051 1.238,1.942 2.234,2.664 1.695,1.235 3.59,1.661 5.688,1.278 2.097,-0.375 3.836,-1.508 5.211,-3.406 0.5,-0.688 0.902,-1.418 1.207,-2.188 0.234,-0.582 0.437,-1.352 0.605,-2.305 0.176,-0.953 0.363,-1.57 0.57,-1.851 0.196,-0.274 0.438,-0.426 0.715,-0.461 0.285,-0.035 0.797,0.109 1.531,0.437 l 0.344,-0.472" /><path
         id="path112"
         style="fill:#ffffff;fill-opacity:1;fill-rule:evenodd;stroke:none"
         d="m 156.398,756.879 c 1.336,-4.004 -0.761,-9.055 -3.523,-12.582 -5.914,-3.817 -4.008,-10.965 -7.152,-17.258 -4.387,-9.34 -12.106,-18.59 -11.727,-29.551 -5.144,-1.906 -13.726,-6.101 -18.207,-3.336 -1.91,0.379 -4.957,3.239 -5.148,4.953 -0.668,17.258 14.203,32.989 17.16,50.434 -0.192,7.34 -4.578,15.731 -0.383,22.496 l 28.98,-15.156" /><path
         id="path114"
         style="fill:none;stroke:#ffffff;stroke-width:0.571998;stroke-linecap:butt;stroke-linejoin:miter;stroke-miterlimit:2.61310005;stroke-dasharray:none;stroke-opacity:1"
         d="m 156.398,756.879 c 1.336,-4.004 -0.761,-9.055 -3.523,-12.582 -5.914,-3.817 -4.008,-10.965 -7.152,-17.258 -4.387,-9.34 -12.106,-18.59 -11.727,-29.551 -5.144,-1.906 -13.726,-6.101 -18.207,-3.336 -1.91,0.379 -4.957,3.239 -5.148,4.953 -0.668,17.258 14.203,32.989 17.16,50.434 -0.192,7.34 -4.578,15.731 -0.383,22.496 l 28.98,-15.156 z" /><path
         id="path116"
         style="fill:none;stroke:#231f20;stroke-width:2.09732008;stroke-linecap:butt;stroke-linejoin:miter;stroke-miterlimit:2.61310005;stroke-dasharray:none;stroke-opacity:1"
         d="m 149.508,760.309 c 1.621,-3.336 1.047,-7.719 0,-11.727 -1.242,-1.047 -1.528,-3.812 -3.528,-3.621" /><path
         id="path118"
         style="fill:none;stroke:#231f20;stroke-width:2.09732008;stroke-linecap:butt;stroke-linejoin:miter;stroke-miterlimit:2.61310005;stroke-dasharray:none;stroke-opacity:1"
         d="m 141.977,764.219 c 1.906,-3.145 1.714,-7.629 1.046,-11.727 -1.144,-1.14 -1.238,-3.91 -3.238,-3.91" /><path
         id="path120"
         style="fill:none;stroke:#231f20;stroke-width:2.09732008;stroke-linecap:butt;stroke-linejoin:miter;stroke-miterlimit:2.61310005;stroke-dasharray:none;stroke-opacity:1"
         d="m 134.824,768.414 c 2.192,-2.957 2.387,-7.34 2.004,-11.535 -1.051,-1.242 -0.859,-4.004 -2.859,-4.195" /><path
         id="path122"
         style="fill:none;stroke:#231f20;stroke-width:1.90665996;stroke-linecap:butt;stroke-linejoin:miter;stroke-miterlimit:2.61310005;stroke-dasharray:none;stroke-opacity:1"
         d="m 156.398,756.879 c 1.336,-4.004 -0.761,-9.055 -3.523,-12.582 -5.914,-3.817 -4.008,-10.965 -7.152,-17.258 -4.387,-9.34 -12.106,-18.59 -11.727,-29.551 -5.144,-1.906 -13.726,-6.101 -18.207,-3.336 -1.91,0.379 -4.957,3.239 -5.148,4.953 -0.668,17.258 14.203,32.989 17.16,50.434 -0.192,7.34 -4.578,15.731 -0.383,22.496" /><path
         id="path124"
         style="fill:#ffffff;fill-opacity:1;fill-rule:evenodd;stroke:none"
         d="m 144.781,698.594 c 6.856,-17.559 -21.125,-48.449 -23.472,-71.074 -1.125,-9.86 6.48,-21.317 14.086,-27.043 l 0,35.207 12.296,0 7.891,16.714 c 5.066,10.329 8.824,20.094 9.574,30.516 l -12.957,9.859 c -3.758,3.004 -5.539,4.977 -7.418,5.821" /><path
         id="path126"
         style="fill:none;stroke:#231f20;stroke-width:1.87785006;stroke-linecap:butt;stroke-linejoin:miter;stroke-miterlimit:2.61310005;stroke-dasharray:none;stroke-opacity:1"
         d="m 144.781,698.594 c 6.856,-17.559 -21.125,-48.449 -23.472,-71.074 -1.125,-9.86 6.48,-21.317 14.086,-27.043 l 0,35.207 12.296,0 7.891,16.714 c 5.066,10.329 8.824,20.094 9.574,30.516 l -12.957,9.859 c -3.758,3.004 -5.539,4.977 -7.418,5.821 z" /><path
         id="path128"
         style="fill:#231f20;fill-opacity:1;fill-rule:evenodd;stroke:none"
         d="m 140.16,672.727 -21.07,14.488 c -4,3.148 -7.055,5.723 -8.867,11.25 5.246,-10.391 18.113,-2.574 23.168,-1.332 6.195,1.808 9.058,2.285 11.25,1.426 2.285,-7.434 0.285,-16.204 -4.481,-25.832" /><path
         id="path130"
         style="fill:none;stroke:#231f20;stroke-width:1.90665996;stroke-linecap:butt;stroke-linejoin:miter;stroke-miterlimit:2.61310005;stroke-dasharray:none;stroke-opacity:1"
         d="m 140.16,672.727 -21.07,14.488 c -4,3.148 -7.055,5.723 -8.867,11.25 5.246,-10.391 18.113,-2.574 23.168,-1.332 6.195,1.808 9.058,2.285 11.25,1.426 2.285,-7.434 0.285,-16.204 -4.481,-25.832 z" /><path
         id="path132"
         style="fill:#231f20;fill-opacity:1;fill-rule:evenodd;stroke:none"
         d="m 145.809,661.746 -3.383,1.477 -1.442,-3.239 3.297,-1.574 -6.281,-13.351 3.383,-1.477 6.113,13.246 3.457,-1.562 1.531,3.332 -3.457,1.562 6.289,13.445 -3.222,1.493 -6.285,-13.352" /><g
         transform="matrix(0.317236,0.680315,-0.683655,0.318794,0,0)"
         id="g134"><path
           id="path136"
           style="fill:none;stroke:#231f20;stroke-width:2.81153011;stroke-linecap:butt;stroke-linejoin:miter;stroke-miterlimit:2.61310005;stroke-dasharray:none;stroke-opacity:1"
           d="m 881.066,195.562 -0.122,4.892 -4.721,-0.083 -0.045,-4.843 -19.657,0.067 0.122,-4.892 19.435,0.076 0.06,-5.029 4.885,0.027 -0.06,5.029 19.774,-0.023 -0.012,4.708 -19.659,0.071 z" /></g><path
         id="path138"
         style="fill:#ffffff;fill-opacity:1;fill-rule:evenodd;stroke:none"
         d="m 370.238,756.879 c -1.332,-4.004 0.766,-9.055 3.528,-12.582 5.914,-3.817 4.007,-10.965 7.152,-17.258 4.387,-9.34 12.105,-18.59 11.723,-29.551 5.148,-1.906 13.73,-6.101 18.211,-3.336 1.91,0.379 4.957,3.239 5.148,4.953 0.664,17.258 -14.203,32.989 -17.16,50.434 0.191,7.34 4.578,15.731 0.383,22.496 l -28.985,-15.156" /><path
         id="path140"
         style="fill:none;stroke:#ffffff;stroke-width:0.571998;stroke-linecap:butt;stroke-linejoin:miter;stroke-miterlimit:2.61310005;stroke-dasharray:none;stroke-opacity:1"
         d="m 370.238,756.879 c -1.332,-4.004 0.766,-9.055 3.528,-12.582 5.914,-3.817 4.007,-10.965 7.152,-17.258 4.387,-9.34 12.105,-18.59 11.723,-29.551 5.148,-1.906 13.73,-6.101 18.211,-3.336 1.91,0.379 4.957,3.239 5.148,4.953 0.664,17.258 -14.203,32.989 -17.16,50.434 0.191,7.34 4.578,15.731 0.383,22.496 l -28.985,-15.156 z" /><path
         id="path142"
         style="fill:none;stroke:#231f20;stroke-width:2.09732008;stroke-linecap:butt;stroke-linejoin:miter;stroke-miterlimit:2.61310005;stroke-dasharray:none;stroke-opacity:1"
         d="m 377.855,760.309 c -1.621,-3.336 -1.05,-7.719 0,-11.727 1.239,-1.047 1.524,-3.812 3.524,-3.621" /><path
         id="path144"
         style="fill:none;stroke:#231f20;stroke-width:2.09732008;stroke-linecap:butt;stroke-linejoin:miter;stroke-miterlimit:2.61310005;stroke-dasharray:none;stroke-opacity:1"
         d="m 385.387,764.219 c -1.91,-3.145 -1.715,-7.629 -1.051,-11.727 1.144,-1.14 1.238,-3.91 3.242,-3.91" /><path
         id="path146"
         style="fill:none;stroke:#231f20;stroke-width:2.09732008;stroke-linecap:butt;stroke-linejoin:miter;stroke-miterlimit:2.61310005;stroke-dasharray:none;stroke-opacity:1"
         d="m 392.535,768.414 c -2.191,-2.957 -2.383,-7.34 -2,-11.535 1.047,-1.242 0.856,-4.004 2.86,-4.195" /><path
         id="path148"
         style="fill:none;stroke:#231f20;stroke-width:1.90665996;stroke-linecap:butt;stroke-linejoin:miter;stroke-miterlimit:2.61310005;stroke-dasharray:none;stroke-opacity:1"
         d="m 370.238,756.879 c -1.332,-4.004 0.766,-9.055 3.528,-12.582 5.914,-3.817 4.007,-10.965 7.152,-17.258 4.387,-9.34 12.105,-18.59 11.723,-29.551 5.148,-1.906 13.73,-6.101 18.211,-3.336 1.91,0.379 4.957,3.239 5.148,4.953 0.664,17.258 -14.203,32.989 -17.16,50.434 0.191,7.34 4.578,15.731 0.383,22.496" /><path
         id="path150"
         style="fill:#ffffff;fill-opacity:1;fill-rule:evenodd;stroke:none"
         d="m 381.859,698.594 c -6.855,-17.559 21.125,-48.449 23.473,-71.074 1.125,-9.86 -6.48,-21.317 -14.086,-27.043 l 0,35.207 -12.297,0 -7.89,16.714 c -5.067,10.329 -8.825,20.094 -9.575,30.516 l 12.957,9.859 c 3.754,3.004 5.539,4.977 7.418,5.821" /><path
         id="path152"
         style="fill:none;stroke:#231f20;stroke-width:1.87785006;stroke-linecap:butt;stroke-linejoin:miter;stroke-miterlimit:2.61310005;stroke-dasharray:none;stroke-opacity:1"
         d="m 381.859,698.594 c -6.855,-17.559 21.125,-48.449 23.473,-71.074 1.125,-9.86 -6.48,-21.317 -14.086,-27.043 l 0,35.207 -12.297,0 -7.89,16.714 c -5.067,10.329 -8.825,20.094 -9.575,30.516 l 12.957,9.859 c 3.754,3.004 5.539,4.977 7.418,5.821 z" /><path
         id="path154"
         style="fill:#231f20;fill-opacity:1;fill-rule:evenodd;stroke:none"
         d="m 386.48,672.727 21.071,14.488 c 4,3.148 7.054,5.723 8.867,11.25 -5.246,-10.391 -18.113,-2.574 -23.168,-1.332 -6.199,1.808 -9.059,2.285 -11.25,1.426 -2.285,-7.434 -0.285,-16.204 4.48,-25.832" /><path
         id="path156"
         style="fill:none;stroke:#231f20;stroke-width:1.90665996;stroke-linecap:butt;stroke-linejoin:miter;stroke-miterlimit:2.61310005;stroke-dasharray:none;stroke-opacity:1"
         d="m 386.48,672.727 21.071,14.488 c 4,3.148 7.054,5.723 8.867,11.25 -5.246,-10.391 -18.113,-2.574 -23.168,-1.332 -6.199,1.808 -9.059,2.285 -11.25,1.426 -2.285,-7.434 -0.285,-16.204 4.48,-25.832 z" /><path
         id="path158"
         style="fill:#231f20;fill-opacity:1;fill-rule:evenodd;stroke:none"
         d="m 380.832,661.746 3.383,1.477 1.441,-3.239 -3.297,-1.574 6.282,-13.351 -3.383,-1.477 -6.113,13.246 -3.457,-1.562 -1.532,3.332 3.457,1.562 -6.289,13.445 3.223,1.493 6.285,-13.352" /><g
         transform="matrix(-0.317236,0.680315,0.683655,0.318794,0,0)"
         id="g160"><path
           id="path162"
           style="fill:none;stroke:#231f20;stroke-width:2.81153011;stroke-linecap:butt;stroke-linejoin:miter;stroke-miterlimit:2.61310005;stroke-dasharray:none;stroke-opacity:1"
           d="m 584.563,828.307 -0.122,4.891 -4.721,-0.082 -0.044,-4.843 -19.657,0.066 0.122,-4.891 19.434,0.076 0.06,-5.029 4.885,0.027 -0.059,5.029 19.774,-0.023 -0.013,4.708 -19.659,0.071 z" /></g><path
         id="path164"
         style="fill:#ffffff;fill-opacity:1;fill-rule:evenodd;stroke:none"
         d="m 263.492,663.281 c 19.906,0 43.004,-2.254 63.098,-8.078 20.465,69.293 10.328,132.766 -63.098,168.445 -73.426,-35.679 -86.191,-99.339 -63.847,-168.632 20.093,5.824 43.945,8.265 63.847,8.265" /><path
         id="path166"
         style="fill:none;stroke:#231f20;stroke-width:1.87785006;stroke-linecap:butt;stroke-linejoin:miter;stroke-miterlimit:2.61310005;stroke-dasharray:none;stroke-opacity:1"
         d="m 263.492,663.281 c 19.906,0 43.004,-2.254 63.098,-8.078 20.465,69.293 10.328,132.766 -63.098,168.445 -73.426,-35.679 -86.191,-99.339 -63.847,-168.632 20.093,5.824 43.945,8.265 63.847,8.265 z" /><path
         id="path168"
         style="fill:#ffffff;fill-opacity:1;fill-rule:evenodd;stroke:none"
         d="m 262.961,840.398 c 5.531,0 9.82,-4.289 9.82,-9.722 0,-5.528 -4.289,-9.817 -9.82,-9.817 -5.434,0 -9.723,4.289 -9.723,9.817 0,5.433 4.289,9.722 9.723,9.722" /><path
         id="path170"
         style="fill:none;stroke:#231f20;stroke-width:1.90665996;stroke-linecap:butt;stroke-linejoin:miter;stroke-miterlimit:2.61310005;stroke-dasharray:none;stroke-opacity:1"
         d="m 262.961,840.398 c 5.531,0 9.82,-4.289 9.82,-9.722 0,-5.528 -4.289,-9.817 -9.82,-9.817 -5.434,0 -9.723,4.289 -9.723,9.817 0,5.433 4.289,9.722 9.723,9.722 z" /><path
         id="path172"
         style="fill:#ffffff;fill-opacity:1;fill-rule:evenodd;stroke:none"
         d="m 266.871,839.336 0,7.137 7.512,0 0,7.511 -7.512,0 0,7.512 -7.512,0 0,-7.512 -7.511,0 0,-7.511 7.511,0 0,-7.137 7.512,0" /><path
         id="path174"
         style="fill:none;stroke:#231f20;stroke-width:1.87785006;stroke-linecap:butt;stroke-linejoin:miter;stroke-miterlimit:2.61310005;stroke-dasharray:none;stroke-opacity:1"
         d="m 266.871,839.336 0,7.137 7.512,0 0,7.511 -7.512,0 0,7.512 -7.512,0 0,-7.512 -7.511,0 0,-7.511 7.511,0 0,-7.137 7.512,0 z" /><path
         id="path176"
         style="fill:#ffffff;fill-opacity:1;fill-rule:evenodd;stroke:none"
         d="m 340.438,698.188 c -4.696,1.124 -9.579,0.183 -10.704,-3.95 -0.375,-1.125 0.563,-3.941 0.942,-5.066 -4.321,0 -8.078,-4.133 -8.078,-7.137 0,-2.816 1.316,-6.199 4.695,-8.453 2.066,-1.312 0.562,-9.199 -3.191,-8.637 -4.883,0.567 -5.071,4.508 -4.883,8.637 0.187,0.754 0.187,3.008 -0.375,3.008 -0.567,0 -1.504,-2.067 -1.504,-2.442 -0.563,-3.378 -5.445,-6.382 -9.387,-5.824 -3.191,0.567 -5.445,3.008 -5.445,6.199 -0.192,6.387 0.183,1.5 5.258,1.313 4.691,-0.75 9.011,2.254 9.953,6.762 0.75,4.507 -2.446,9.015 -6.949,9.765 -0.192,0 -0.379,0 -0.75,0.188 0.75,0.75 1.312,2.066 1.5,3.191 0.75,4.696 -2.442,9.391 -6.95,10.328 -4.508,0.754 -8.824,-2.816 -9.761,-7.324 -0.192,-1.312 0,-2.441 0.187,-3.566 -0.187,0.187 -0.566,0.187 -0.754,0.187 -4.691,0.938 -9.199,-2.254 -9.953,-6.945 -0.75,-4.508 2.441,-8.453 6.949,-9.391 4.508,-0.754 6.383,0.75 6.196,-1.129 -0.372,-3.004 -3.567,-7.324 -6.758,-6.57 -4.883,0.563 -8.637,2.816 -8.453,6.758 0.187,0.754 -0.184,3.191 -0.75,3.191 -0.563,0 -0.938,-1.5 -0.938,-2.625 -0.379,-3.57 -3.758,-6.011 -8.828,-5.824 -3.004,0.188 -5.445,3.004 -5.445,6.199 -0.188,3.754 0.187,1.692 4.886,1.5 4.692,-0.187 8.45,3.946 8.45,8.449 0,4.7 -3.758,8.454 -8.45,8.454 -0.191,0 -0.378,0 -0.753,0 0.562,1.125 0.753,2.25 0.753,3.566 0,4.695 -3.757,8.449 -8.453,8.449 -4.883,0.567 -8.453,-3.754 -8.453,-8.449 0,-1.316 0.192,-2.441 0.754,-3.566 -0.375,0 -0.562,0 -0.754,0 -4.504,0 -8.449,-3.754 -8.449,-8.454 0,-4.503 3.945,-8.636 8.449,-8.449 4.699,0.192 5.074,2.254 4.887,-1.5 0,-3.195 -2.254,-6.011 -5.445,-6.199 -5.075,-0.187 -8.454,2.254 -8.641,5.824 0,1.125 -0.375,2.625 -1.125,2.625 -0.566,0 -0.938,-2.437 -0.754,-3.191 0.188,-3.942 -3.566,-6.195 -8.449,-6.758 -3.192,-0.754 -6.387,3.566 -6.758,6.57 -0.187,1.879 1.688,0.375 6.195,1.129 4.696,0.938 7.7,4.883 6.946,9.391 -0.75,4.691 -5.258,7.883 -9.95,6.945 -0.187,0 -0.375,0 -0.753,-0.187 0.378,1.125 0.378,2.254 0.187,3.566 -0.937,4.508 -5.258,8.078 -9.766,7.324 -4.504,-0.937 -7.699,-5.632 -6.757,-10.328 0.187,-1.125 0.562,-2.441 1.312,-3.191 -0.375,-0.188 -0.559,-0.188 -0.75,-0.188 -4.508,-0.75 -7.699,-5.258 -6.762,-9.765 0.754,-4.508 5.071,-7.512 9.766,-6.762 5.07,0.187 5.445,5.074 5.258,-1.313 0,-3.191 -2.254,-5.632 -5.445,-6.199 -3.754,-0.558 -8.825,2.446 -9.387,5.824 0,0.375 -0.75,2.442 -1.504,2.442 -0.563,0 -0.563,-2.254 -0.375,-3.008 0.187,-4.129 0,-8.07 -4.695,-8.637 -3.942,-0.562 -5.446,7.325 -3.379,8.637 3.379,2.254 4.695,5.637 4.695,8.453 0,3.004 -3.758,7.137 -8.078,7.137 0.566,1.125 1.316,3.941 0.937,5.066 -1.125,4.133 -6.004,6.2 -10.89,3.95 l 14.461,-43.192 c 20.093,5.816 43.941,8.262 64.035,8.262 20.094,0 42.812,-2.446 62.91,-8.078 l 14.27,43.008" /><path
         id="path178"
         style="fill:none;stroke:#231f20;stroke-width:1.87785006;stroke-linecap:butt;stroke-linejoin:miter;stroke-miterlimit:2.61310005;stroke-dasharray:none;stroke-opacity:1"
         d="m 340.438,698.188 c -4.696,1.124 -9.579,0.183 -10.704,-3.95 -0.375,-1.125 0.563,-3.941 0.942,-5.066 -4.321,0 -8.078,-4.133 -8.078,-7.137 0,-2.816 1.316,-6.199 4.695,-8.453 2.066,-1.312 0.562,-9.199 -3.191,-8.637 -4.883,0.567 -5.071,4.508 -4.883,8.637 0.187,0.754 0.187,3.008 -0.375,3.008 -0.567,0 -1.504,-2.067 -1.504,-2.442 -0.563,-3.378 -5.445,-6.382 -9.387,-5.824 -3.191,0.567 -5.445,3.008 -5.445,6.199 -0.192,6.387 0.183,1.5 5.258,1.313 4.691,-0.75 9.011,2.254 9.953,6.762 0.75,4.507 -2.446,9.015 -6.949,9.765 -0.192,0 -0.379,0 -0.75,0.188 0.75,0.75 1.312,2.066 1.5,3.191 0.75,4.696 -2.442,9.391 -6.95,10.328 -4.508,0.754 -8.824,-2.816 -9.761,-7.324 -0.192,-1.312 0,-2.441 0.187,-3.566 -0.187,0.187 -0.566,0.187 -0.754,0.187 -4.691,0.938 -9.199,-2.254 -9.953,-6.945 -0.75,-4.508 2.441,-8.453 6.949,-9.391 4.508,-0.754 6.383,0.75 6.196,-1.129 -0.372,-3.004 -3.567,-7.324 -6.758,-6.57 -4.883,0.563 -8.637,2.816 -8.453,6.758 0.187,0.754 -0.184,3.191 -0.75,3.191 -0.563,0 -0.938,-1.5 -0.938,-2.625 -0.379,-3.57 -3.758,-6.011 -8.828,-5.824 -3.004,0.188 -5.445,3.004 -5.445,6.199 -0.188,3.754 0.187,1.692 4.886,1.5 4.692,-0.187 8.45,3.946 8.45,8.449 0,4.7 -3.758,8.454 -8.45,8.454 -0.191,0 -0.378,0 -0.753,0 0.562,1.125 0.753,2.25 0.753,3.566 0,4.695 -3.757,8.449 -8.453,8.449 -4.883,0.567 -8.453,-3.754 -8.453,-8.449 0,-1.316 0.192,-2.441 0.754,-3.566 -0.375,0 -0.562,0 -0.754,0 -4.504,0 -8.449,-3.754 -8.449,-8.454 0,-4.503 3.945,-8.636 8.449,-8.449 4.699,0.192 5.074,2.254 4.887,-1.5 0,-3.195 -2.254,-6.011 -5.445,-6.199 -5.075,-0.187 -8.454,2.254 -8.641,5.824 0,1.125 -0.375,2.625 -1.125,2.625 -0.566,0 -0.938,-2.437 -0.754,-3.191 0.188,-3.942 -3.566,-6.195 -8.449,-6.758 -3.192,-0.754 -6.387,3.566 -6.758,6.57 -0.187,1.879 1.688,0.375 6.195,1.129 4.696,0.938 7.7,4.883 6.946,9.391 -0.75,4.691 -5.258,7.883 -9.95,6.945 -0.187,0 -0.375,0 -0.753,-0.187 0.378,1.125 0.378,2.254 0.187,3.566 -0.937,4.508 -5.258,8.078 -9.766,7.324 -4.504,-0.937 -7.699,-5.632 -6.757,-10.328 0.187,-1.125 0.562,-2.441 1.312,-3.191 -0.375,-0.188 -0.559,-0.188 -0.75,-0.188 -4.508,-0.75 -7.699,-5.258 -6.762,-9.765 0.754,-4.508 5.071,-7.512 9.766,-6.762 5.07,0.187 5.445,5.074 5.258,-1.313 0,-3.191 -2.254,-5.632 -5.445,-6.199 -3.754,-0.558 -8.825,2.446 -9.387,5.824 0,0.375 -0.75,2.442 -1.504,2.442 -0.563,0 -0.563,-2.254 -0.375,-3.008 0.187,-4.129 0,-8.07 -4.695,-8.637 -3.942,-0.562 -5.446,7.325 -3.379,8.637 3.379,2.254 4.695,5.637 4.695,8.453 0,3.004 -3.758,7.137 -8.078,7.137 0.566,1.125 1.316,3.941 0.937,5.066 -1.125,4.133 -6.004,6.2 -10.89,3.95 l 14.461,-43.192 c 20.093,5.816 43.941,8.262 64.035,8.262 20.094,0 42.812,-2.446 62.91,-8.078 l 14.27,43.008 z" /><path
         id="path180"
         style="fill:#ffffff;fill-opacity:1;fill-rule:evenodd;stroke:none"
         d="m 342.848,752.895 c -6.575,2.628 -11.832,-2.817 -12.582,-5.637 -0.375,-1.313 0,-3.567 0.937,-5.82 -4.32,-0.188 -8.074,-3.379 -8.074,-6.571 0,-2.633 1.129,-6.949 5.07,-8.265 4.696,-1.5 6.571,-0.372 6.196,-2.25 -0.563,-3.008 -4.504,-6.762 -7.883,-6.575 -4.7,0.375 -6.953,4.696 -6.762,8.825 0.188,0.566 0.188,3.007 -0.379,3.007 -0.559,0 -1.5,-2.066 -1.5,-2.441 -0.754,-3.383 -5.445,-5.824 -9.391,-5.07 -3.191,0.562 -5.445,2.066 -5.445,5.257 -0.187,6.383 0.188,1.688 5.258,1.5 4.695,-0.937 9.016,2.067 9.953,6.575 0.754,4.695 -2.441,9.203 -6.945,9.953 -0.192,0 -0.379,0 -0.754,0 0.754,0.937 1.312,2.062 1.504,3.379 0.75,4.508 -2.446,9.015 -6.949,9.765 -4.508,0.75 -8.825,-2.254 -9.766,-6.949 -0.188,-1.129 0,-2.254 0.187,-3.379 -0.187,0 -0.562,0.188 -0.75,0.188 -4.695,0.754 -9.203,-2.254 -9.953,-6.949 -0.75,-4.504 2.442,-8.637 6.95,-9.391 4.507,-0.938 6.382,0.754 6.195,-1.125 -0.375,-3.192 -3.57,-6.945 -6.762,-6.945 -4.879,-0.192 -8.637,3.003 -8.449,7.132 0.187,0.567 -0.188,3.004 -0.75,3.004 -0.566,0 -0.938,-1.5 -0.938,-2.437 -0.378,-3.758 -3.757,-6.199 -8.828,-5.824 -3.004,0.187 -5.445,3.003 -5.445,6.011 -0.188,3.754 0.187,1.688 4.883,1.5 4.695,-0.187 8.449,3.946 8.449,8.637 0,4.695 -3.754,8.449 -8.449,8.449 -0.188,0 -0.375,-0.183 -0.75,-0.183 0.562,1.125 0.75,2.437 0.75,3.566 0,4.695 -3.379,8.449 -8.262,8.449 -4.883,0 -8.641,-3.754 -8.641,-8.449 0,-1.129 0.192,-2.441 0.75,-3.566 -0.371,0 -0.558,0.183 -0.75,0.183 -4.503,0 -8.449,-3.754 -8.449,-8.449 0,-4.691 3.946,-8.824 8.449,-8.637 4.7,0.188 5.071,2.254 4.883,-1.5 0,-3.008 -2.25,-5.824 -5.445,-6.011 -5.07,-0.375 -8.449,2.066 -8.637,5.824 0,0.937 -0.375,2.437 -1.129,2.437 -0.562,0 -0.937,-2.437 -0.75,-3.004 0.188,-4.129 -3.566,-7.324 -8.449,-7.132 -3.191,0 -6.387,3.753 -6.762,6.945 -0.187,1.879 1.692,0.187 6.2,1.125 4.691,0.754 7.695,4.887 6.945,9.391 -0.75,4.695 -5.258,7.703 -9.953,6.949 -0.188,0 -0.371,-0.188 -0.75,-0.188 0.379,1.125 0.379,2.25 0.187,3.379 -0.937,4.695 -5.258,7.699 -9.761,6.949 -4.508,-0.75 -7.7,-5.257 -6.762,-9.765 0.187,-1.317 0.562,-2.442 1.312,-3.379 -0.375,0 -0.562,0 -0.75,0 -4.504,-0.75 -7.699,-5.258 -6.757,-9.953 0.75,-4.508 5.066,-7.512 9.761,-6.575 5.071,0.188 5.449,4.883 5.258,-1.5 0,-3.191 -2.254,-4.695 -5.445,-5.257 -3.758,-0.754 -8.637,1.687 -9.387,5.07 0,0.375 -0.754,2.441 -1.504,2.441 -0.562,0 -0.562,-2.441 -0.379,-3.007 0.192,-4.129 -2.062,-8.45 -6.57,-8.825 -3.567,-0.187 -7.512,3.567 -8.074,6.575 -0.375,1.878 1.504,0.75 6.195,2.25 3.945,1.316 5.07,5.632 5.07,8.265 0,3.192 -3.754,6.383 -8.074,6.571 0.942,2.253 1.316,4.507 0.942,5.82 -0.75,2.82 -4.321,7.512 -12.77,5.637 l 5.633,-46.95 c 24.41,7.328 50.89,11.27 73.984,11.27 23.102,0 49.953,-3.942 73.613,-11.27 l 6.2,46.95" /><path
         id="path182"
         style="fill:none;stroke:#231f20;stroke-width:1.87785006;stroke-linecap:butt;stroke-linejoin:miter;stroke-miterlimit:2.61310005;stroke-dasharray:none;stroke-opacity:1"
         d="m 342.848,752.895 c -6.575,2.628 -11.832,-2.817 -12.582,-5.637 -0.375,-1.313 0,-3.567 0.937,-5.82 -4.32,-0.188 -8.074,-3.379 -8.074,-6.571 0,-2.633 1.129,-6.949 5.07,-8.265 4.696,-1.5 6.571,-0.372 6.196,-2.25 -0.563,-3.008 -4.504,-6.762 -7.883,-6.575 -4.7,0.375 -6.953,4.696 -6.762,8.825 0.188,0.566 0.188,3.007 -0.379,3.007 -0.559,0 -1.5,-2.066 -1.5,-2.441 -0.754,-3.383 -5.445,-5.824 -9.391,-5.07 -3.191,0.562 -5.445,2.066 -5.445,5.257 -0.187,6.383 0.188,1.688 5.258,1.5 4.695,-0.937 9.016,2.067 9.953,6.575 0.754,4.695 -2.441,9.203 -6.945,9.953 -0.192,0 -0.379,0 -0.754,0 0.754,0.937 1.312,2.062 1.504,3.379 0.75,4.508 -2.446,9.015 -6.949,9.765 -4.508,0.75 -8.825,-2.254 -9.766,-6.949 -0.188,-1.129 0,-2.254 0.187,-3.379 -0.187,0 -0.562,0.188 -0.75,0.188 -4.695,0.754 -9.203,-2.254 -9.953,-6.949 -0.75,-4.504 2.442,-8.637 6.95,-9.391 4.507,-0.938 6.382,0.754 6.195,-1.125 -0.375,-3.192 -3.57,-6.945 -6.762,-6.945 -4.879,-0.192 -8.637,3.003 -8.449,7.132 0.187,0.567 -0.188,3.004 -0.75,3.004 -0.566,0 -0.938,-1.5 -0.938,-2.437 -0.378,-3.758 -3.757,-6.199 -8.828,-5.824 -3.004,0.187 -5.445,3.003 -5.445,6.011 -0.188,3.754 0.187,1.688 4.883,1.5 4.695,-0.187 8.449,3.946 8.449,8.637 0,4.695 -3.754,8.449 -8.449,8.449 -0.188,0 -0.375,-0.183 -0.75,-0.183 0.562,1.125 0.75,2.437 0.75,3.566 0,4.695 -3.379,8.449 -8.262,8.449 -4.883,0 -8.641,-3.754 -8.641,-8.449 0,-1.129 0.192,-2.441 0.75,-3.566 -0.371,0 -0.558,0.183 -0.75,0.183 -4.503,0 -8.449,-3.754 -8.449,-8.449 0,-4.691 3.946,-8.824 8.449,-8.637 4.7,0.188 5.071,2.254 4.883,-1.5 0,-3.008 -2.25,-5.824 -5.445,-6.011 -5.07,-0.375 -8.449,2.066 -8.637,5.824 0,0.937 -0.375,2.437 -1.129,2.437 -0.562,0 -0.937,-2.437 -0.75,-3.004 0.188,-4.129 -3.566,-7.324 -8.449,-7.132 -3.191,0 -6.387,3.753 -6.762,6.945 -0.187,1.879 1.692,0.187 6.2,1.125 4.691,0.754 7.695,4.887 6.945,9.391 -0.75,4.695 -5.258,7.703 -9.953,6.949 -0.188,0 -0.371,-0.188 -0.75,-0.188 0.379,1.125 0.379,2.25 0.187,3.379 -0.937,4.695 -5.258,7.699 -9.761,6.949 -4.508,-0.75 -7.7,-5.257 -6.762,-9.765 0.187,-1.317 0.562,-2.442 1.312,-3.379 -0.375,0 -0.562,0 -0.75,0 -4.504,-0.75 -7.699,-5.258 -6.757,-9.953 0.75,-4.508 5.066,-7.512 9.761,-6.575 5.071,0.188 5.449,4.883 5.258,-1.5 0,-3.191 -2.254,-4.695 -5.445,-5.257 -3.758,-0.754 -8.637,1.687 -9.387,5.07 0,0.375 -0.754,2.441 -1.504,2.441 -0.562,0 -0.562,-2.441 -0.379,-3.007 0.192,-4.129 -2.062,-8.45 -6.57,-8.825 -3.567,-0.187 -7.512,3.567 -8.074,6.575 -0.375,1.878 1.504,0.75 6.195,2.25 3.945,1.316 5.07,5.632 5.07,8.265 0,3.192 -3.754,6.383 -8.074,6.571 0.942,2.253 1.316,4.507 0.942,5.82 -0.75,2.82 -4.321,7.512 -12.77,5.637 l 5.633,-46.95 c 24.41,7.328 50.89,11.27 73.984,11.27 23.102,0 49.953,-3.942 73.613,-11.27 l 6.2,46.95 z" /><path
         id="path184"
         style="fill:#ffffff;fill-opacity:1;fill-rule:evenodd;stroke:none"
         d="m 329.199,757.539 4.696,49.195 c -4.129,-0.371 -6.008,-3.004 -6.008,-5.066 0,-0.566 -0.563,-5.637 1.504,-7.324 -4.508,-0.188 -7.325,-3.379 -7.325,-6.949 0,-2.629 1.125,-7.325 5.821,-8.637 1.125,-3.946 -1.313,-6.574 -3.567,-6.574 -4.32,0 -5.074,2.816 -4.882,6.949 0.187,0.562 0.187,3.004 -0.376,3.004 -0.566,0 -1.503,-2.067 -1.503,-2.442 -0.563,-3.383 -5.446,-5.82 -9.387,-5.07 -3.195,0.563 -5.449,2.066 -5.449,5.258 -0.188,6.383 0.187,1.691 5.257,1.504 4.696,-0.938 9.016,2.066 9.954,6.574 0.754,4.691 -2.442,9.199 -6.95,9.949 -0.187,0 -0.375,0 -0.75,0 0.75,0.942 1.317,2.067 1.5,3.379 0.754,4.508 -2.437,9.016 -6.945,9.766 -4.508,0.754 -8.824,-2.254 -9.766,-6.946 -0.187,-1.129 0,-2.254 0.188,-3.382 -0.188,0 -0.563,0.191 -0.75,0.191 -4.695,0.75 -9.199,-2.254 -9.953,-6.949 -0.75,-4.508 2.441,-8.641 6.949,-9.391 4.508,-0.937 6.383,0.75 6.195,-1.125 -0.375,-3.191 -3.566,-6.574 -6.757,-6.574 -4.883,-0.188 -8.641,2.629 -8.454,6.762 0.188,0.75 -0.187,3.004 -0.75,3.004 -0.562,0 -0.937,-1.504 -0.937,-2.442 -0.379,-3.754 -3.758,-6.008 -8.828,-5.824 -3.004,0.187 -5.446,3.008 -5.446,6.199 -0.187,3.567 0.188,1.5 4.883,1.317 4.696,-0.188 8.453,3.941 8.453,8.636 0,4.692 -3.757,8.449 -8.453,8.449 -0.187,0 -0.375,0 -0.754,0 0.567,0.942 0.754,2.254 0.754,3.383 0,4.692 -3.754,8.449 -8.453,8.449 -4.879,0 -8.449,-3.757 -8.449,-8.449 0,-1.129 0.187,-2.441 0.754,-3.383 -0.375,0 -0.567,0 -0.754,0 -4.508,0 -8.449,-3.757 -8.449,-8.449 0,-4.695 3.941,-8.824 8.449,-8.636 4.695,0.183 5.07,2.25 4.887,-1.317 0,-3.191 -2.254,-6.012 -5.446,-6.199 -5.074,-0.184 -8.453,2.07 -8.64,5.824 0,0.938 -0.375,2.442 -1.125,2.442 -0.567,0 -0.942,-2.254 -0.754,-3.004 0.187,-4.133 -3.567,-6.95 -8.449,-6.762 -3.196,0 -6.387,3.383 -6.762,6.574 -0.188,1.875 1.691,0.188 6.199,1.125 4.691,0.75 7.699,4.883 6.945,9.391 -0.75,4.695 -5.257,7.699 -9.953,6.949 -0.183,0 -0.375,-0.191 -0.75,-0.191 0.375,1.128 0.375,2.253 0.188,3.382 -0.938,4.692 -5.258,7.7 -9.766,6.946 -4.508,-0.75 -7.699,-5.258 -6.758,-9.766 0.188,-1.312 0.563,-2.437 1.313,-3.379 -0.375,0 -0.563,0 -0.75,0 -4.508,-0.75 -7.699,-5.258 -6.762,-9.949 0.75,-4.508 5.07,-7.512 9.766,-6.574 5.07,0.187 5.445,4.879 5.258,-1.504 0,-3.192 -2.254,-4.695 -5.446,-5.258 -3.754,-0.75 -8.828,1.687 -9.386,5.07 0,0.188 -0.754,2.442 -1.504,2.442 -0.563,0 -0.563,-2.442 -0.375,-3.004 0.187,-4.133 -0.567,-6.949 -4.696,-6.949 -1.504,0 -5.633,1.878 -3.757,6.574 4.695,1.312 5.824,6.008 5.824,8.637 0,3.57 -2.817,6.761 -7.324,6.949 2.066,1.687 1.5,6.758 1.5,7.324 0,2.062 -1.876,4.695 -6.008,5.066 l 4.695,-49.195 c 21.406,6.008 44.691,10.137 66.664,10.137 21.594,0 43.754,-3.754 65.91,-10.137" /><path
         id="path186"
         style="fill:none;stroke:#231f20;stroke-width:1.87785006;stroke-linecap:butt;stroke-linejoin:miter;stroke-miterlimit:2.61310005;stroke-dasharray:none;stroke-opacity:1"
         d="m 329.199,757.539 4.696,49.195 c -4.129,-0.371 -6.008,-3.004 -6.008,-5.066 0,-0.566 -0.563,-5.637 1.504,-7.324 -4.508,-0.188 -7.325,-3.379 -7.325,-6.949 0,-2.629 1.125,-7.325 5.821,-8.637 1.125,-3.946 -1.313,-6.574 -3.567,-6.574 -4.32,0 -5.074,2.816 -4.882,6.949 0.187,0.562 0.187,3.004 -0.376,3.004 -0.566,0 -1.503,-2.067 -1.503,-2.442 -0.563,-3.383 -5.446,-5.82 -9.387,-5.07 -3.195,0.563 -5.449,2.066 -5.449,5.258 -0.188,6.383 0.187,1.691 5.257,1.504 4.696,-0.938 9.016,2.066 9.954,6.574 0.754,4.691 -2.442,9.199 -6.95,9.949 -0.187,0 -0.375,0 -0.75,0 0.75,0.942 1.317,2.067 1.5,3.379 0.754,4.508 -2.437,9.016 -6.945,9.766 -4.508,0.754 -8.824,-2.254 -9.766,-6.946 -0.187,-1.129 0,-2.254 0.188,-3.382 -0.188,0 -0.563,0.191 -0.75,0.191 -4.695,0.75 -9.199,-2.254 -9.953,-6.949 -0.75,-4.508 2.441,-8.641 6.949,-9.391 4.508,-0.937 6.383,0.75 6.195,-1.125 -0.375,-3.191 -3.566,-6.574 -6.757,-6.574 -4.883,-0.188 -8.641,2.629 -8.454,6.762 0.188,0.75 -0.187,3.004 -0.75,3.004 -0.562,0 -0.937,-1.504 -0.937,-2.442 -0.379,-3.754 -3.758,-6.008 -8.828,-5.824 -3.004,0.187 -5.446,3.008 -5.446,6.199 -0.187,3.567 0.188,1.5 4.883,1.317 4.696,-0.188 8.453,3.941 8.453,8.636 0,4.692 -3.757,8.449 -8.453,8.449 -0.187,0 -0.375,0 -0.754,0 0.567,0.942 0.754,2.254 0.754,3.383 0,4.692 -3.754,8.449 -8.453,8.449 -4.879,0 -8.449,-3.757 -8.449,-8.449 0,-1.129 0.187,-2.441 0.754,-3.383 -0.375,0 -0.567,0 -0.754,0 -4.508,0 -8.449,-3.757 -8.449,-8.449 0,-4.695 3.941,-8.824 8.449,-8.636 4.695,0.183 5.07,2.25 4.887,-1.317 0,-3.191 -2.254,-6.012 -5.446,-6.199 -5.074,-0.184 -8.453,2.07 -8.64,5.824 0,0.938 -0.375,2.442 -1.125,2.442 -0.567,0 -0.942,-2.254 -0.754,-3.004 0.187,-4.133 -3.567,-6.95 -8.449,-6.762 -3.196,0 -6.387,3.383 -6.762,6.574 -0.188,1.875 1.691,0.188 6.199,1.125 4.691,0.75 7.699,4.883 6.945,9.391 -0.75,4.695 -5.257,7.699 -9.953,6.949 -0.183,0 -0.375,-0.191 -0.75,-0.191 0.375,1.128 0.375,2.253 0.188,3.382 -0.938,4.692 -5.258,7.7 -9.766,6.946 -4.508,-0.75 -7.699,-5.258 -6.758,-9.766 0.188,-1.312 0.563,-2.437 1.313,-3.379 -0.375,0 -0.563,0 -0.75,0 -4.508,-0.75 -7.699,-5.258 -6.762,-9.949 0.75,-4.508 5.07,-7.512 9.766,-6.574 5.07,0.187 5.445,4.879 5.258,-1.504 0,-3.192 -2.254,-4.695 -5.446,-5.258 -3.754,-0.75 -8.828,1.687 -9.386,5.07 0,0.188 -0.754,2.442 -1.504,2.442 -0.563,0 -0.563,-2.442 -0.375,-3.004 0.187,-4.133 -0.567,-6.949 -4.696,-6.949 -1.504,0 -5.633,1.878 -3.757,6.574 4.695,1.312 5.824,6.008 5.824,8.637 0,3.57 -2.817,6.761 -7.324,6.949 2.066,1.687 1.5,6.758 1.5,7.324 0,2.062 -1.876,4.695 -6.008,5.066 l 4.695,-49.195 c 21.406,6.008 44.691,10.137 66.664,10.137 21.594,0 43.754,-3.754 65.91,-10.137 z" /><path
         id="path188"
         style="fill:#231f20;fill-opacity:1;fill-rule:evenodd;stroke:none"
         d="m 262.578,647.441 c -20.207,0 -42.137,1.715 -63.016,7.719 20.024,6.199 43.758,8.297 63.876,8.297 20.21,0 42.898,-2.098 62.917,-8.297 -20.875,-6.004 -43.566,-7.719 -63.777,-7.719" /><path
         id="path190"
         style="fill:none;stroke:#231f20;stroke-width:1.90665996;stroke-linecap:butt;stroke-linejoin:miter;stroke-miterlimit:2.61310005;stroke-dasharray:none;stroke-opacity:1"
         d="m 262.578,647.441 c -20.207,0 -42.137,1.715 -63.016,7.719 20.024,6.199 43.758,8.297 63.876,8.297 20.21,0 42.898,-2.098 62.917,-8.297 -20.875,-6.004 -43.566,-7.719 -63.777,-7.719 z" /><path
         id="path192"
         style="fill:#231f20;fill-opacity:1;fill-rule:evenodd;stroke:none"
         d="m 227.379,669.762 c 1.023,0 1.859,-0.836 1.859,-1.86 0,-1.023 -0.836,-1.859 -1.859,-1.859 -1.024,0 -1.859,0.836 -1.859,1.859 0,1.024 0.835,1.86 1.859,1.86" /><path
         id="path194"
         style="fill:none;stroke:#231f20;stroke-width:0.571998;stroke-linecap:butt;stroke-linejoin:miter;stroke-miterlimit:2.61310005;stroke-dasharray:none;stroke-opacity:1"
         d="m 227.379,669.762 c 1.023,0 1.859,-0.836 1.859,-1.86 0,-1.023 -0.836,-1.859 -1.859,-1.859 -1.024,0 -1.859,0.836 -1.859,1.859 0,1.024 0.835,1.86 1.859,1.86 z" /><path
         id="path196"
         style="fill:#231f20;fill-opacity:1;fill-rule:evenodd;stroke:none"
         d="m 297.82,669.762 c -1.023,0 -1.859,-0.836 -1.859,-1.86 0,-1.023 0.836,-1.859 1.859,-1.859 1.024,0 1.86,0.836 1.86,1.859 0,1.024 -0.836,1.86 -1.86,1.86" /><path
         id="path198"
         style="fill:none;stroke:#231f20;stroke-width:0.571998;stroke-linecap:butt;stroke-linejoin:miter;stroke-miterlimit:2.61310005;stroke-dasharray:none;stroke-opacity:1"
         d="m 297.82,669.762 c -1.023,0 -1.859,-0.836 -1.859,-1.86 0,-1.023 0.836,-1.859 1.859,-1.859 1.024,0 1.86,0.836 1.86,1.859 0,1.024 -0.836,1.86 -1.86,1.86 z" /><path
         id="path200"
         style="fill:#231f20;fill-opacity:1;fill-rule:evenodd;stroke:none"
         d="m 263.379,671.922 c 1.023,0 1.859,-0.84 1.859,-1.863 0,-1.02 -0.836,-1.86 -1.859,-1.86 -1.024,0 -1.859,0.84 -1.859,1.86 0,1.023 0.835,1.863 1.859,1.863" /><path
         id="path202"
         style="fill:none;stroke:#231f20;stroke-width:0.571998;stroke-linecap:butt;stroke-linejoin:miter;stroke-miterlimit:2.61310005;stroke-dasharray:none;stroke-opacity:1"
         d="m 263.379,671.922 c 1.023,0 1.859,-0.84 1.859,-1.863 0,-1.02 -0.836,-1.86 -1.859,-1.86 -1.024,0 -1.859,0.84 -1.859,1.86 0,1.023 0.835,1.863 1.859,1.863 z" /><path
         id="path204"
         style="fill:#231f20;fill-opacity:1;fill-rule:evenodd;stroke:none"
         d="m 227.379,773.441 c 1.023,0 1.859,-0.836 1.859,-1.859 0,-1.023 -0.836,-1.859 -1.859,-1.859 -1.024,0 -1.859,0.836 -1.859,1.859 0,1.023 0.835,1.859 1.859,1.859" /><path
         id="path206"
         style="fill:none;stroke:#231f20;stroke-width:0.571998;stroke-linecap:butt;stroke-linejoin:miter;stroke-miterlimit:2.61310005;stroke-dasharray:none;stroke-opacity:1"
         d="m 227.379,773.441 c 1.023,0 1.859,-0.836 1.859,-1.859 0,-1.023 -0.836,-1.859 -1.859,-1.859 -1.024,0 -1.859,0.836 -1.859,1.859 0,1.023 0.835,1.859 1.859,1.859 z" /><path
         id="path208"
         style="fill:#231f20;fill-opacity:1;fill-rule:evenodd;stroke:none"
         d="m 298.539,773.441 c -1.023,0 -1.859,-0.836 -1.859,-1.859 0,-1.023 0.836,-1.859 1.859,-1.859 1.023,0 1.859,0.836 1.859,1.859 0,1.023 -0.836,1.859 -1.859,1.859" /><path
         id="path210"
         style="fill:none;stroke:#231f20;stroke-width:0.571998;stroke-linecap:butt;stroke-linejoin:miter;stroke-miterlimit:2.61310005;stroke-dasharray:none;stroke-opacity:1"
         d="m 298.539,773.441 c -1.023,0 -1.859,-0.836 -1.859,-1.859 0,-1.023 0.836,-1.859 1.859,-1.859 1.023,0 1.859,0.836 1.859,1.859 0,1.023 -0.836,1.859 -1.859,1.859 z" /><path
         id="path212"
         style="fill:#231f20;fill-opacity:1;fill-rule:evenodd;stroke:none"
         d="m 262.66,776.32 c 1.024,0 1.86,-0.836 1.86,-1.859 0,-1.023 -0.836,-1.859 -1.86,-1.859 -1.023,0 -1.859,0.836 -1.859,1.859 0,1.023 0.836,1.859 1.859,1.859" /><path
         id="path214"
         style="fill:none;stroke:#231f20;stroke-width:0.571998;stroke-linecap:butt;stroke-linejoin:miter;stroke-miterlimit:2.61310005;stroke-dasharray:none;stroke-opacity:1"
         d="m 262.66,776.32 c 1.024,0 1.86,-0.836 1.86,-1.859 0,-1.023 -0.836,-1.859 -1.86,-1.859 -1.023,0 -1.859,0.836 -1.859,1.859 0,1.023 0.836,1.859 1.859,1.859 z" /><path
         id="path216"
         style="fill:#231f20;fill-opacity:1;fill-rule:evenodd;stroke:none"
         d="m 227.379,722.32 c 1.023,0 1.859,-0.836 1.859,-1.859 0,-1.023 -0.836,-1.859 -1.859,-1.859 -1.024,0 -1.859,0.836 -1.859,1.859 0,1.023 0.835,1.859 1.859,1.859" /><path
         id="path218"
         style="fill:none;stroke:#231f20;stroke-width:0.571998;stroke-linecap:butt;stroke-linejoin:miter;stroke-miterlimit:2.61310005;stroke-dasharray:none;stroke-opacity:1"
         d="m 227.379,722.32 c 1.023,0 1.859,-0.836 1.859,-1.859 0,-1.023 -0.836,-1.859 -1.859,-1.859 -1.024,0 -1.859,0.836 -1.859,1.859 0,1.023 0.835,1.859 1.859,1.859 z" /><path
         id="path220"
         style="fill:#231f20;fill-opacity:1;fill-rule:evenodd;stroke:none"
         d="m 297.82,722.32 c -1.023,0 -1.859,-0.836 -1.859,-1.859 0,-1.023 0.836,-1.859 1.859,-1.859 1.024,0 1.86,0.836 1.86,1.859 0,1.023 -0.836,1.859 -1.86,1.859" /><path
         id="path222"
         style="fill:none;stroke:#231f20;stroke-width:0.571998;stroke-linecap:butt;stroke-linejoin:miter;stroke-miterlimit:2.61310005;stroke-dasharray:none;stroke-opacity:1"
         d="m 297.82,722.32 c -1.023,0 -1.859,-0.836 -1.859,-1.859 0,-1.023 0.836,-1.859 1.859,-1.859 1.024,0 1.86,0.836 1.86,1.859 0,1.023 -0.836,1.859 -1.86,1.859 z" /><path
         id="path224"
         style="fill:#231f20;fill-opacity:1;fill-rule:evenodd;stroke:none"
         d="m 263.379,725.199 c 1.023,0 1.859,-0.836 1.859,-1.859 0,-1.024 -0.836,-1.86 -1.859,-1.86 -1.024,0 -1.859,0.836 -1.859,1.86 0,1.023 0.835,1.859 1.859,1.859" /><path
         id="path226"
         style="fill:none;stroke:#231f20;stroke-width:0.571998;stroke-linecap:butt;stroke-linejoin:miter;stroke-miterlimit:2.61310005;stroke-dasharray:none;stroke-opacity:1"
         d="m 263.379,725.199 c 1.023,0 1.859,-0.836 1.859,-1.859 0,-1.024 -0.836,-1.86 -1.859,-1.86 -1.024,0 -1.859,0.836 -1.859,1.86 0,1.023 0.835,1.859 1.859,1.859 z" /><path
         id="path228"
         style="fill:#ffffff;fill-opacity:1;fill-rule:evenodd;stroke:none"
         d="m 305.711,660.191 -24.129,2.536 c -2.254,-9.391 0.938,-19.625 9.672,-27.137 l 25.914,0 c -6.762,6.293 -11.832,15.398 -11.457,24.601" /><path
         id="path230"
         style="fill:none;stroke:#231f20;stroke-width:1.87785006;stroke-linecap:butt;stroke-linejoin:miter;stroke-miterlimit:2.61310005;stroke-dasharray:none;stroke-opacity:1"
         d="m 305.711,660.191 -24.129,2.536 c -2.254,-9.391 0.938,-19.625 9.672,-27.137 l 25.914,0 c -6.762,6.293 -11.832,15.398 -11.457,24.601 z" /><path
         id="path232"
         style="fill:#ffffff;fill-opacity:1;fill-rule:evenodd;stroke:none"
         d="m 220.93,660.191 24.129,2.536 c 2.253,-9.391 -0.938,-19.625 -9.672,-27.137 l -25.914,0 c 6.761,6.293 11.832,15.398 11.457,24.601" /><path
         id="path234"
         style="fill:none;stroke:#231f20;stroke-width:1.87785006;stroke-linecap:butt;stroke-linejoin:miter;stroke-miterlimit:2.61310005;stroke-dasharray:none;stroke-opacity:1"
         d="m 220.93,660.191 24.129,2.536 c 2.253,-9.391 -0.938,-19.625 -9.672,-27.137 l -25.914,0 c 6.761,6.293 11.832,15.398 11.457,24.601 z" /><path
         id="path236"
         style="fill:#ffffff;fill-opacity:1;fill-rule:evenodd;stroke:none"
         d="m 262.961,329.996 c 1.906,0.285 2.668,1.051 3.621,3.051 l 3.813,5.91 c 13.636,17.445 41.375,30.125 64.257,29.457 l 13.442,2.481 c 38.511,10.582 42.515,53.195 42.515,84.847 l 0,180.18 -255.3,0 0,-180.18 c 0,-31.367 4.003,-74.265 42.519,-84.847 l 13.442,-2.481 c 22.878,0.668 50.621,-12.012 64.253,-29.457 l 3.813,-5.91 c 0.574,-1.238 1.91,-3.242 3.625,-3.051" /><path
         id="path238"
         style="fill:none;stroke:#231f20;stroke-width:2.76465011;stroke-linecap:butt;stroke-linejoin:miter;stroke-miterlimit:2.61310005;stroke-dasharray:none;stroke-opacity:1"
         d="m 262.961,329.996 c 1.906,0.285 2.668,1.051 3.621,3.051 l 3.813,5.91 c 13.636,17.445 41.375,30.125 64.257,29.457 l 13.442,2.481 c 38.511,10.582 42.515,53.195 42.515,84.847 l 0,180.18 -255.3,0 0,-180.18 c 0,-31.367 4.003,-74.265 42.519,-84.847 l 13.442,-2.481 c 22.878,0.668 50.621,-12.012 64.253,-29.457 l 3.813,-5.91 c 0.574,-1.238 1.91,-3.242 3.625,-3.051 z" /><path
         id="path240"
         style="fill:#ffffff;fill-opacity:1;fill-rule:evenodd;stroke:none"
         d="m 254.695,340 16.942,0 -16.942,0" /><path
         id="path242"
         style="fill:none;stroke:#231f20;stroke-width:0.93594497;stroke-linecap:butt;stroke-linejoin:miter;stroke-miterlimit:2.61310005;stroke-dasharray:none;stroke-opacity:1"
         d="m 254.695,340 16.942,0 -16.942,0 z" /><path
         id="path244"
         style="fill:#ffffff;fill-opacity:1;fill-rule:evenodd;stroke:none"
         d="m 238.164,354.398 49.516,0 -49.516,0" /><path
         id="path246"
         style="fill:none;stroke:#231f20;stroke-width:0.93594497;stroke-linecap:butt;stroke-linejoin:miter;stroke-miterlimit:2.61310005;stroke-dasharray:none;stroke-opacity:1"
         d="m 238.164,354.398 49.516,0 -49.516,0 z" /><path
         id="path248"
         style="fill:#ffffff;fill-opacity:1;fill-rule:evenodd;stroke:none"
         d="m 334.551,368.078 0,0 z m -3.742,0 -139.645,0 139.645,0" /><path
         id="path250"
         style="fill:none;stroke:#231f20;stroke-width:0.93594497;stroke-linecap:butt;stroke-linejoin:miter;stroke-miterlimit:2.61310005;stroke-dasharray:none;stroke-opacity:1"
         d="m 334.551,368.078 0,0 z m -3.742,0 -139.645,0 139.645,0 z" /><path
         id="path252"
         style="fill:#ffffff;fill-opacity:1;fill-rule:evenodd;stroke:none"
         d="m 156.738,382.48 212.274,0 -212.274,0" /><path
         id="path254"
         style="fill:none;stroke:#231f20;stroke-width:0.93594497;stroke-linecap:butt;stroke-linejoin:miter;stroke-miterlimit:2.61310005;stroke-dasharray:none;stroke-opacity:1"
         d="m 156.738,382.48 212.274,0 -212.274,0 z" /><path
         id="path256"
         style="fill:#ffffff;fill-opacity:1;fill-rule:evenodd;stroke:none"
         d="m 145.926,396.16 233.613,0 -233.613,0" /><path
         id="path258"
         style="fill:none;stroke:#231f20;stroke-width:0.93594497;stroke-linecap:butt;stroke-linejoin:miter;stroke-miterlimit:2.61310005;stroke-dasharray:none;stroke-opacity:1"
         d="m 145.926,396.16 233.613,0 -233.613,0 z" /><path
         id="path260"
         style="fill:#ffffff;fill-opacity:1;fill-rule:evenodd;stroke:none"
         d="m 140.488,410.559 245.032,0 -245.032,0" /><path
         id="path262"
         style="fill:none;stroke:#231f20;stroke-width:0.93594497;stroke-linecap:butt;stroke-linejoin:miter;stroke-miterlimit:2.61310005;stroke-dasharray:none;stroke-opacity:1"
         d="m 140.488,410.559 245.032,0 -245.032,0 z" /><path
         id="path264"
         style="fill:#ffffff;fill-opacity:1;fill-rule:evenodd;stroke:none"
         d="m 388.656,424.543 -251.301,0 251.301,0" /><path
         id="path266"
         style="fill:none;stroke:#231f20;stroke-width:0.93594497;stroke-linecap:butt;stroke-linejoin:miter;stroke-miterlimit:2.61310005;stroke-dasharray:none;stroke-opacity:1"
         d="m 388.656,424.543 -251.301,0 251.301,0 z" /><path
         id="path268"
         style="fill:#ffffff;fill-opacity:1;fill-rule:evenodd;stroke:none"
         d="m 135.855,438.582 254.301,0 -254.301,0" /><path
         id="path270"
         style="fill:none;stroke:#231f20;stroke-width:0.93594497;stroke-linecap:butt;stroke-linejoin:miter;stroke-miterlimit:2.61310005;stroke-dasharray:none;stroke-opacity:1"
         d="m 135.855,438.582 254.301,0 -254.301,0 z" /><path
         id="path272"
         style="fill:none;stroke:#231f20;stroke-width:0.93594497;stroke-linecap:butt;stroke-linejoin:miter;stroke-miterlimit:2.61310005;stroke-dasharray:none;stroke-opacity:1"
         d="m 390.219,452.32 -255.231,0 255.231,0 z" /><path
         id="path274"
         style="fill:none;stroke:#231f20;stroke-width:0.93594497;stroke-linecap:butt;stroke-linejoin:miter;stroke-miterlimit:2.61310005;stroke-dasharray:none;stroke-opacity:1"
         d="m 135.453,466.719 255.141,0 -255.141,0 z" /><path
         id="path276"
         style="fill:none;stroke:#231f20;stroke-width:0.93594497;stroke-linecap:butt;stroke-linejoin:miter;stroke-miterlimit:2.61310005;stroke-dasharray:none;stroke-opacity:1"
         d="m 135.453,480.398 255.141,0 -255.141,0 z" /><path
         id="path278"
         style="fill:none;stroke:#231f20;stroke-width:0.93594497;stroke-linecap:butt;stroke-linejoin:miter;stroke-miterlimit:2.61310005;stroke-dasharray:none;stroke-opacity:1"
         d="m 135.453,494.801 255.141,0 -255.141,0 z" /><path
         id="path280"
         style="fill:none;stroke:#231f20;stroke-width:0.93594497;stroke-linecap:butt;stroke-linejoin:miter;stroke-miterlimit:2.61310005;stroke-dasharray:none;stroke-opacity:1"
         d="m 135.453,508.48 255.141,0 -255.141,0 z" /><path
         id="path282"
         style="fill:none;stroke:#231f20;stroke-width:0.93594497;stroke-linecap:butt;stroke-linejoin:miter;stroke-miterlimit:2.61310005;stroke-dasharray:none;stroke-opacity:1"
         d="m 135.453,522.879 255.141,0 -255.141,0 z" /><path
         id="path284"
         style="fill:none;stroke:#231f20;stroke-width:0.93594497;stroke-linecap:butt;stroke-linejoin:miter;stroke-miterlimit:2.61310005;stroke-dasharray:none;stroke-opacity:1"
         d="m 135.453,536.559 255.141,0 -255.141,0 z" /><path
         id="path286"
         style="fill:none;stroke:#231f20;stroke-width:0.93594497;stroke-linecap:butt;stroke-linejoin:miter;stroke-miterlimit:2.61310005;stroke-dasharray:none;stroke-opacity:1"
         d="m 135.453,550.961 255.141,0 -255.141,0 z" /><path
         id="path288"
         style="fill:none;stroke:#231f20;stroke-width:0.93594497;stroke-linecap:butt;stroke-linejoin:miter;stroke-miterlimit:2.61310005;stroke-dasharray:none;stroke-opacity:1"
         d="m 135.453,564.641 255.141,0 -255.141,0 z" /><path
         id="path290"
         style="fill:none;stroke:#231f20;stroke-width:0.93594497;stroke-linecap:butt;stroke-linejoin:miter;stroke-miterlimit:2.61310005;stroke-dasharray:none;stroke-opacity:1"
         d="m 135.453,579.039 255.141,0 -255.141,0 z" /><path
         id="path292"
         style="fill:none;stroke:#231f20;stroke-width:0.93594497;stroke-linecap:butt;stroke-linejoin:miter;stroke-miterlimit:2.61310005;stroke-dasharray:none;stroke-opacity:1"
         d="m 135.453,592.719 255.141,0 -255.141,0 z" /><path
         id="path294"
         style="fill:none;stroke:#231f20;stroke-width:0.93594497;stroke-linecap:butt;stroke-linejoin:miter;stroke-miterlimit:2.61310005;stroke-dasharray:none;stroke-opacity:1"
         d="m 135.453,607.121 255.141,0 -255.141,0 z" /><path
         id="path296"
         style="fill:none;stroke:#231f20;stroke-width:0.93594497;stroke-linecap:butt;stroke-linejoin:miter;stroke-miterlimit:2.61310005;stroke-dasharray:none;stroke-opacity:1"
         d="m 135.453,620.801 255.141,0 -255.141,0 z" /><path
         id="path298"
         style="fill:#ffffff;fill-opacity:1;fill-rule:evenodd;stroke:none"
         d="m 311.379,486.785 c 3.812,-0.191 7.625,0.285 11.437,1.43 l 0,-79.223 c -26.214,-12.297 -41.754,3.91 -60.058,-7.34 -18.305,11.633 -33.844,-4.957 -60.059,7.34 l 0,79.223 c 3.336,-0.953 7.149,-1.43 10.485,-1.336 5.531,4.387 -5.434,26.598 0.285,36.801 1.719,3.238 4.386,4.859 8.39,5.527 5.34,1.621 10.106,-2.574 15.157,-0.477 8.007,11.633 3.531,27.458 10.011,40.708 -2.953,0.191 -6.578,-7.055 -6.578,-8.961 0,-1.239 -3.523,-2.094 -3.242,0.57 2.195,17.734 4.481,33.941 9.441,51.004 -12.679,-9.531 -15.066,-36.129 -17.066,-51.383 -0.574,-2.004 -3.719,-4.863 -4.957,0.953 -4.48,20.59 -2.289,34.891 1.047,54.914 -13.152,-10.394 -11.914,-43.379 -10.965,-59.203 0,0 -0.187,-3.719 -2.379,-4.102 -0.668,0 -1.621,1.719 -1.621,1.719 -8.961,16.586 -10.867,36.227 -14.492,53.766 l -0.86,8.199 -1.046,-0.379 -2.477,-6.199 c -3.148,-20.402 4.195,-41.184 12.203,-61.203 0.285,-1.336 -1.242,-3.528 -2.863,-3.242 -1.332,0.855 -2.285,1.906 -3.719,2.859 -14.871,14.684 -27.93,33.844 -37.18,55.582 l -0.472,-0.289 -0.86,-5.91 c 3.719,-21.735 20.973,-49.289 39.086,-62.25 2,-3.055 0.953,-4.77 -0.382,-6.102 -7.34,-7.343 -41.09,26.981 -43.95,32.414 -1.047,0.379 -0.379,-0.383 -0.57,-0.476 4.195,-19.926 19.164,-31.082 33.367,-42.137 1.332,-2.004 2.574,-4.008 1.145,-5.914 -0.766,-1.145 -5.817,-1.238 -8.102,-0.094 -10.105,4.86 -21.168,10.485 -28.316,17.063 4.386,-13.25 18.687,-18.496 31.172,-25.645 1.621,-1.523 3.148,-3.051 3.718,-4.765 0.668,-2.098 1.145,-1.715 1.239,-3.528 0.097,-0.859 -0.477,-1.812 -1.239,-1.812 -10.484,1.715 -22.023,2.765 -31.554,8.675 l -0.86,0 -0.187,-0.667 c 3.144,-5.243 8.863,-8.196 14.301,-10.868 6.097,-3.812 13.152,-4.195 19.445,-6.293 0.859,-0.57 1.051,-1.238 0.383,-1.906 -8.485,-6.766 -20.688,-9.723 -29.934,-11.82 9.914,-4.863 20.211,-0.192 30.121,0.383 0.383,-0.575 0.574,-1.239 0.574,-1.621 -5.246,-12.68 -23.07,-16.875 -35.273,-21.739 -0.094,-0.187 -0.285,-1.238 0.57,-1.523 9.344,-3.43 24.121,1.43 32.989,4.859 1.523,0.574 3.906,1.719 3.714,-2.476 -0.378,-7.34 -24.976,-20.973 -31.648,-23.356 l 0,-0.859 c 0.477,-0.571 1.336,-0.86 1.715,-1.047 l 0.191,0 c 6.293,0 18.399,3.238 23.93,7.148 0.379,0.192 5.336,2.575 6.004,2.289 2.289,-0.859 1.242,-7.152 -0.953,-9.343 -6.196,-7.34 -16.301,-14.11 -26.883,-18.59 0.668,-1.051 1.906,-0.192 2.766,-0.856 8.199,-0.195 17.828,2.762 24.597,7.246 4.098,2.477 2.953,-3.054 -0.383,-9.156 -5.246,-7.055 -10.871,-11.531 -17.73,-16.203 l 0.473,-0.383 0.191,0 c 7.148,-0.668 18.305,4.481 22.117,8.196 4.578,3.433 5.242,1.433 4.863,-3.813 -0.957,-4.574 -3.718,-8.387 -8.105,-12.391 6.961,1.524 14.395,6.481 19.066,10.489 4.008,3.906 9.442,7.242 9.153,-0.196 -0.664,-4.382 -3.621,-8.484 -6.672,-12.773 6.863,3.816 14.777,6.769 18.59,13.062 4.004,4.481 7.34,4.004 7.722,2.192 1.145,-5.527 -5.34,-12.391 -7.246,-15.254 6.864,3.816 10.867,9.82 15.824,14.395 2.864,2.765 4.387,4.289 8.102,4.289 2.195,0 3.719,-2.094 6.867,-2 3.145,0.097 4.481,2 6.672,2 3.719,0 5.246,-1.524 8.106,-4.289 4.957,-4.575 8.961,-10.579 15.824,-14.395 -1.906,2.863 -8.391,9.727 -7.246,15.254 0.383,1.812 3.718,2.289 7.722,-2.192 3.813,-6.293 11.723,-9.246 18.59,-13.062 -3.051,4.289 -6.008,8.391 -6.672,12.773 -0.285,7.438 5.149,4.102 9.149,0.196 4.672,-4.008 12.109,-8.965 19.07,-10.489 -4.387,4.004 -7.152,7.817 -8.105,12.391 -0.383,5.246 0.285,7.246 4.863,3.813 3.812,-3.715 14.965,-8.864 22.117,-8.196 l 0.191,0 0.477,0.383 c -6.867,4.672 -12.492,9.148 -17.73,16.203 -3.34,6.102 -4.485,11.633 -0.383,9.156 6.769,-4.484 16.398,-7.441 24.594,-7.246 0.859,0.664 2.097,-0.195 2.765,0.856 -10.582,4.48 -20.687,11.25 -26.883,18.59 -2.191,2.191 -3.242,8.484 -0.953,9.343 0.664,0.286 5.621,-2.097 6.004,-2.289 5.527,-3.91 17.637,-7.148 23.93,-7.148 l 0.187,0 c 0.383,0.187 1.242,0.476 1.719,1.047 l 0,0.859 c -6.672,2.383 -31.269,16.016 -31.652,23.356 -0.188,4.195 2.195,3.05 3.718,2.476 8.868,-3.429 23.641,-8.289 32.985,-4.859 0.859,0.285 0.672,1.336 0.574,1.523 -12.203,4.864 -30.031,9.059 -35.273,21.739 0,0.382 0.191,1.046 0.57,1.621 9.918,-0.575 20.211,-5.246 30.129,-0.383 -9.25,2.097 -21.449,5.054 -29.938,11.82 -0.668,0.668 -0.476,1.336 0.383,1.906 6.293,2.098 13.344,2.481 19.449,6.293 5.434,2.672 11.153,5.625 14.297,10.868 l -0.191,0.667 -0.86,0 c -9.531,-5.91 -21.066,-6.96 -31.55,-8.675 -0.766,0 -1.336,0.953 -1.243,1.812 0.098,1.813 0.575,1.43 1.243,3.528 0.57,1.714 2.093,3.242 3.714,4.765 12.493,7.149 26.793,12.395 31.176,25.645 -7.152,-6.578 -18.207,-12.203 -28.312,-17.063 -2.289,-1.144 -7.246,-1.051 -8.106,0.094 -1.332,1.906 -0.191,3.91 1.145,5.914 14.203,11.055 29.172,22.211 33.367,42.137 -0.191,0.093 0.477,0.855 -0.574,0.476 -2.86,-5.433 -36.606,-39.757 -43.946,-32.414 -1.335,1.332 -2.386,3.047 -0.382,6.102 18.113,12.961 35.367,40.515 39.086,62.25 l -0.856,5.91 -0.476,0.289 c -9.25,-21.738 -22.309,-40.898 -37.184,-55.582 -1.43,-0.953 -2.379,-2.004 -3.715,-2.859 -1.621,-0.286 -3.148,1.906 -2.859,3.242 8.008,20.019 15.344,40.801 12.203,61.203 l -2.481,6.199 -1.05,0.379 -0.856,-8.199 c -3.621,-17.539 -5.531,-37.18 -14.492,-53.766 0,0 -0.953,-1.719 -1.621,-1.719 -2.191,0.383 -2.383,4.102 -2.383,4.102 0.953,15.824 2.195,48.809 -10.961,59.203 3.336,-20.023 5.527,-34.324 1.047,-54.914 -1.242,-5.816 -4.387,-2.957 -4.957,-0.953 -2.004,15.254 -4.383,41.852 -17.063,51.383 4.954,-17.063 7.243,-33.27 9.434,-51.004 0.289,-2.664 -3.238,-1.809 -3.238,-0.57 0,1.906 -3.621,9.152 -6.578,8.961 6.48,-13.25 2,-29.075 10.008,-40.708 5.054,-2.097 9.82,2.098 15.16,0.477 4,-0.668 6.672,-2.289 8.386,-5.527 5.629,-10.203 -9.531,-32.512 -0.855,-36.895" /><path
         id="path300"
         style="fill:none;stroke:#231f20;stroke-width:1.90665996;stroke-linecap:butt;stroke-linejoin:miter;stroke-miterlimit:2.61310005;stroke-dasharray:none;stroke-opacity:1"
         d="m 311.379,486.785 c 3.812,-0.191 7.625,0.285 11.437,1.43 l 0,-79.223 c -26.214,-12.297 -41.754,3.91 -60.058,-7.34 -18.305,11.633 -33.844,-4.957 -60.059,7.34 l 0,79.223 c 3.336,-0.953 7.149,-1.43 10.485,-1.336 5.531,4.387 -5.434,26.598 0.285,36.801 1.719,3.238 4.386,4.859 8.39,5.527 5.34,1.621 10.106,-2.574 15.157,-0.477 8.007,11.633 3.531,27.458 10.011,40.708 -2.953,0.191 -6.578,-7.055 -6.578,-8.961 0,-1.239 -3.523,-2.094 -3.242,0.57 2.195,17.734 4.481,33.941 9.441,51.004 -12.679,-9.531 -15.066,-36.129 -17.066,-51.383 -0.574,-2.004 -3.719,-4.863 -4.957,0.953 -4.48,20.59 -2.289,34.891 1.047,54.914 -13.152,-10.394 -11.914,-43.379 -10.965,-59.203 0,0 -0.187,-3.719 -2.379,-4.102 -0.668,0 -1.621,1.719 -1.621,1.719 -8.961,16.586 -10.867,36.227 -14.492,53.766 l -0.86,8.199 -1.046,-0.379 -2.477,-6.199 c -3.148,-20.402 4.195,-41.184 12.203,-61.203 0.285,-1.336 -1.242,-3.528 -2.863,-3.242 -1.332,0.855 -2.285,1.906 -3.719,2.859 -14.871,14.684 -27.93,33.844 -37.18,55.582 l -0.472,-0.289 -0.86,-5.91 c 3.719,-21.735 20.973,-49.289 39.086,-62.25 2,-3.055 0.953,-4.77 -0.382,-6.102 -7.34,-7.343 -41.09,26.981 -43.95,32.414 -1.047,0.379 -0.379,-0.383 -0.57,-0.476 4.195,-19.926 19.164,-31.082 33.367,-42.137 1.332,-2.004 2.574,-4.008 1.145,-5.914 -0.766,-1.145 -5.817,-1.238 -8.102,-0.094 -10.105,4.86 -21.168,10.485 -28.316,17.063 4.386,-13.25 18.687,-18.496 31.172,-25.645 1.621,-1.523 3.148,-3.051 3.718,-4.765 0.668,-2.098 1.145,-1.715 1.239,-3.528 0.097,-0.859 -0.477,-1.812 -1.239,-1.812 -10.484,1.715 -22.023,2.765 -31.554,8.675 l -0.86,0 -0.187,-0.667 c 3.144,-5.243 8.863,-8.196 14.301,-10.868 6.097,-3.812 13.152,-4.195 19.445,-6.293 0.859,-0.57 1.051,-1.238 0.383,-1.906 -8.485,-6.766 -20.688,-9.723 -29.934,-11.82 9.914,-4.863 20.211,-0.192 30.121,0.383 0.383,-0.575 0.574,-1.239 0.574,-1.621 -5.246,-12.68 -23.07,-16.875 -35.273,-21.739 -0.094,-0.187 -0.285,-1.238 0.57,-1.523 9.344,-3.43 24.121,1.43 32.989,4.859 1.523,0.574 3.906,1.719 3.714,-2.476 -0.378,-7.34 -24.976,-20.973 -31.648,-23.356 l 0,-0.859 c 0.477,-0.571 1.336,-0.86 1.715,-1.047 l 0.191,0 c 6.293,0 18.399,3.238 23.93,7.148 0.379,0.192 5.336,2.575 6.004,2.289 2.289,-0.859 1.242,-7.152 -0.953,-9.343 -6.196,-7.34 -16.301,-14.11 -26.883,-18.59 0.668,-1.051 1.906,-0.192 2.766,-0.856 8.199,-0.195 17.828,2.762 24.597,7.246 4.098,2.477 2.953,-3.054 -0.383,-9.156 -5.246,-7.055 -10.871,-11.531 -17.73,-16.203 l 0.473,-0.383 0.191,0 c 7.148,-0.668 18.305,4.481 22.117,8.196 4.578,3.433 5.242,1.433 4.863,-3.813 -0.957,-4.574 -3.718,-8.387 -8.105,-12.391 6.961,1.524 14.395,6.481 19.066,10.489 4.008,3.906 9.442,7.242 9.153,-0.196 -0.664,-4.382 -3.621,-8.484 -6.672,-12.773 6.863,3.816 14.777,6.769 18.59,13.062 4.004,4.481 7.34,4.004 7.722,2.192 1.145,-5.527 -5.34,-12.391 -7.246,-15.254 6.864,3.816 10.867,9.82 15.824,14.395 2.864,2.765 4.387,4.289 8.102,4.289 2.195,0 3.719,-2.094 6.867,-2 3.145,0.097 4.481,2 6.672,2 3.719,0 5.246,-1.524 8.106,-4.289 4.957,-4.575 8.961,-10.579 15.824,-14.395 -1.906,2.863 -8.391,9.727 -7.246,15.254 0.383,1.812 3.718,2.289 7.722,-2.192 3.813,-6.293 11.723,-9.246 18.59,-13.062 -3.051,4.289 -6.008,8.391 -6.672,12.773 -0.285,7.438 5.149,4.102 9.149,0.196 4.672,-4.008 12.109,-8.965 19.07,-10.489 -4.387,4.004 -7.152,7.817 -8.105,12.391 -0.383,5.246 0.285,7.246 4.863,3.813 3.812,-3.715 14.965,-8.864 22.117,-8.196 l 0.191,0 0.477,0.383 c -6.867,4.672 -12.492,9.148 -17.73,16.203 -3.34,6.102 -4.485,11.633 -0.383,9.156 6.769,-4.484 16.398,-7.441 24.594,-7.246 0.859,0.664 2.097,-0.195 2.765,0.856 -10.582,4.48 -20.687,11.25 -26.883,18.59 -2.191,2.191 -3.242,8.484 -0.953,9.343 0.664,0.286 5.621,-2.097 6.004,-2.289 5.527,-3.91 17.637,-7.148 23.93,-7.148 l 0.187,0 c 0.383,0.187 1.242,0.476 1.719,1.047 l 0,0.859 c -6.672,2.383 -31.269,16.016 -31.652,23.356 -0.188,4.195 2.195,3.05 3.718,2.476 8.868,-3.429 23.641,-8.289 32.985,-4.859 0.859,0.285 0.672,1.336 0.574,1.523 -12.203,4.864 -30.031,9.059 -35.273,21.739 0,0.382 0.191,1.046 0.57,1.621 9.918,-0.575 20.211,-5.246 30.129,-0.383 -9.25,2.097 -21.449,5.054 -29.938,11.82 -0.668,0.668 -0.476,1.336 0.383,1.906 6.293,2.098 13.344,2.481 19.449,6.293 5.434,2.672 11.153,5.625 14.297,10.868 l -0.191,0.667 -0.86,0 c -9.531,-5.91 -21.066,-6.96 -31.55,-8.675 -0.766,0 -1.336,0.953 -1.243,1.812 0.098,1.813 0.575,1.43 1.243,3.528 0.57,1.714 2.093,3.242 3.714,4.765 12.493,7.149 26.793,12.395 31.176,25.645 -7.152,-6.578 -18.207,-12.203 -28.312,-17.063 -2.289,-1.144 -7.246,-1.051 -8.106,0.094 -1.332,1.906 -0.191,3.91 1.145,5.914 14.203,11.055 29.172,22.211 33.367,42.137 -0.191,0.093 0.477,0.855 -0.574,0.476 -2.86,-5.433 -36.606,-39.757 -43.946,-32.414 -1.335,1.332 -2.386,3.047 -0.382,6.102 18.113,12.961 35.367,40.515 39.086,62.25 l -0.856,5.91 -0.476,0.289 c -9.25,-21.738 -22.309,-40.898 -37.184,-55.582 -1.43,-0.953 -2.379,-2.004 -3.715,-2.859 -1.621,-0.286 -3.148,1.906 -2.859,3.242 8.008,20.019 15.344,40.801 12.203,61.203 l -2.481,6.199 -1.05,0.379 -0.856,-8.199 c -3.621,-17.539 -5.531,-37.18 -14.492,-53.766 0,0 -0.953,-1.719 -1.621,-1.719 -2.191,0.383 -2.383,4.102 -2.383,4.102 0.953,15.824 2.195,48.809 -10.961,59.203 3.336,-20.023 5.527,-34.324 1.047,-54.914 -1.242,-5.816 -4.387,-2.957 -4.957,-0.953 -2.004,15.254 -4.383,41.852 -17.063,51.383 4.954,-17.063 7.243,-33.27 9.434,-51.004 0.289,-2.664 -3.238,-1.809 -3.238,-0.57 0,1.906 -3.621,9.152 -6.578,8.961 6.48,-13.25 2,-29.075 10.008,-40.708 5.054,-2.097 9.82,2.098 15.16,0.477 4,-0.668 6.672,-2.289 8.386,-5.527 5.629,-10.203 -9.531,-32.512 -0.855,-36.895 z" /><path
         id="path302"
         style="fill:#ffffff;fill-opacity:1;fill-rule:evenodd;stroke:none"
         d="m 262.961,401.922 0,82.547 m 0,0 c -20.965,11.14 -39.313,-2.34 -59.902,3.746 l 0,-79.184 c 26.207,-12.351 40.714,4.309 59.902,-7.109 19.281,11.418 33.977,-5.242 60.18,7.109 l 0,79.184 c -20.59,-6.086 -39.028,10.015 -60.18,-3.746" /><path
         id="path304"
         style="fill:none;stroke:#231f20;stroke-width:1.87188995;stroke-linecap:butt;stroke-linejoin:miter;stroke-miterlimit:2.61310005;stroke-dasharray:none;stroke-opacity:1"
         d="m 262.961,401.922 0,82.547 m 0,0 c -20.965,11.14 -39.313,-2.34 -59.902,3.746 l 0,-79.184 c 26.207,-12.351 40.714,4.309 59.902,-7.109 19.281,11.418 33.977,-5.242 60.18,7.109 l 0,79.184 c -20.59,-6.086 -39.028,10.015 -60.18,-3.746 z" /><path
         id="path306"
         style="fill:#231f20;fill-opacity:1;fill-rule:evenodd;stroke:none"
         d="m 301.926,425.262 c 4.476,12.386 11.957,26.199 3.765,38.203 -3.382,4.14 -8.242,6.715 -14.671,6.715 -6.383,-1.094 -11.575,-4.477 -14.243,-11.242 -3.761,-10.86 1.145,-22.051 7.86,-32.149 -2.239,-1.906 -6,-0.43 -9.383,-0.43 -1.094,0.762 0.812,2.286 0,3.383 0.812,1.141 3.383,0 5.285,0.43 -4.855,10.43 -10.906,24.289 -3.332,35.531 4.098,5.617 12.668,9 20.621,8.238 6.336,-1.476 10.098,-5.191 13.102,-11.621 4.472,-10.859 -2.242,-22.054 -5.621,-33.293 1.859,-0.382 3.379,1.145 5.621,0.332 l 0,-3 c -1.86,-2.238 -5.621,0 -8.621,-1.097 l -0.383,0" /><path
         id="path308"
         style="fill:none;stroke:#231f20;stroke-width:5.76000023;stroke-linecap:butt;stroke-linejoin:miter;stroke-miterlimit:2.61310005;stroke-dasharray:none;stroke-opacity:1"
         d="m 301.926,425.262 c 4.476,12.386 11.957,26.199 3.765,38.203 -3.382,4.14 -8.242,6.715 -14.671,6.715 -6.383,-1.094 -11.575,-4.477 -14.243,-11.242 -3.761,-10.86 1.145,-22.051 7.86,-32.149 -2.239,-1.906 -6,-0.43 -9.383,-0.43 -1.094,0.762 0.812,2.286 0,3.383 0.812,1.141 3.383,0 5.285,0.43 -4.855,10.43 -10.906,24.289 -3.332,35.531 4.098,5.617 12.668,9 20.621,8.238 6.336,-1.476 10.098,-5.191 13.102,-11.621 4.472,-10.859 -2.242,-22.054 -5.621,-33.293 1.859,-0.382 3.379,1.145 5.621,0.332 l 0,-3 c -1.86,-2.238 -5.621,0 -8.621,-1.097 l -0.383,0 z" /><path
         id="path310"
         style="fill:#231f20;fill-opacity:1;fill-rule:evenodd;stroke:none"
         d="m 247.602,426.617 c -1.778,1.121 -0.934,0.184 -2.43,1.684 -0.469,2.246 1.777,0.75 2.242,2.996 l -4.492,10.199 -20.402,0 -5.149,-11.789 c 0.844,-0.375 1.965,-0.281 2.996,-0.656 l 0.375,-2.434 -9.828,-0.094 0.652,1.872 c 0.938,0.75 2.625,0.468 3.184,1.777 l 14.789,36.969 c -1.875,0.281 -5.055,0.187 -7.301,-0.934 -1.402,0.656 -0.375,2.898 -0.375,4.492 l 21.809,0.281 c 0.281,-1.121 0,-2.156 0.281,-3.652 l -0.656,-0.746 c -1.871,-0.375 -3.836,1.027 -6.082,0.746 l -1.125,-0.746 16.566,-37.531 1.5,-1.125 0,-1.309 -6.554,0 z m -23.864,17.875 8.047,20.871 9.641,-20.871 -17.688,0" /><path
         id="path312"
         style="fill:none;stroke:#231f20;stroke-width:5.76000023;stroke-linecap:butt;stroke-linejoin:miter;stroke-miterlimit:2.61310005;stroke-dasharray:none;stroke-opacity:1"
         d="m 247.602,426.617 c -1.778,1.121 -0.934,0.184 -2.43,1.684 -0.469,2.246 1.777,0.75 2.242,2.996 l -4.492,10.199 -20.402,0 -5.149,-11.789 c 0.844,-0.375 1.965,-0.281 2.996,-0.656 l 0.375,-2.434 -9.828,-0.094 0.652,1.872 c 0.938,0.75 2.625,0.468 3.184,1.777 l 14.789,36.969 c -1.875,0.281 -5.055,0.187 -7.301,-0.934 -1.402,0.656 -0.375,2.898 -0.375,4.492 l 21.809,0.281 c 0.281,-1.121 0,-2.156 0.281,-3.652 l -0.656,-0.746 c -1.871,-0.375 -3.836,1.027 -6.082,0.746 l -1.125,-0.746 16.566,-37.531 1.5,-1.125 0,-1.309 -6.554,0 z m -23.864,17.875 8.047,20.871 9.641,-20.871 -17.688,0 z" /><path
         id="path314"
         style="fill:#231f20;fill-opacity:1;fill-rule:evenodd;stroke:none"
         d="m 110.859,134.297 0,-40.4259 c 0,-8.7539 0.95,-14.1836 2.86,-16.3047 2.597,-2.9922 6.531,-4.4844 11.773,-4.4844 l 5.32,0 0,-3.8008 -59.4878,0 0,3.8008 5.2188,0 c 5.8711,0 10.0703,1.8868 12.6132,5.7149 1.3633,2.1211 2.043,7.1289 2.043,15.0742 l 0,89.6909 c 0,8.754 -0.9453,14.18 -2.7812,16.278 -2.6446,3.015 -6.6055,4.508 -11.875,4.508 l -5.2188,0 0,3.804 50.8868,0 c 12.43,0 22.238,-1.285 29.394,-3.855 7.18,-2.543 13.211,-6.867 18.141,-12.949 4.902,-6.086 7.367,-13.27 7.367,-21.606 0,-11.324 -3.75,-20.554 -11.222,-27.66 -7.473,-7.074 -18.036,-10.641 -31.696,-10.641 -3.332,0 -6.949,0.239 -10.855,0.707 -3.875,0.5 -8.047,1.207 -12.481,2.149 z m 0,5.848 c 3.618,-0.684 6.821,-1.18 9.625,-1.52 2.809,-0.344 5.192,-0.527 7.157,-0.527 7.105,0 13.238,2.754 18.379,8.234 5.164,5.504 7.734,12.637 7.734,21.367 0,6.004 -1.234,11.586 -3.672,16.75 -2.465,5.141 -5.949,8.996 -10.461,11.567 -4.508,2.566 -9.621,3.824 -15.359,3.824 -3.465,0 -7.946,-0.629 -13.403,-1.942 l 0,-57.753" /><path
         id="path316"
         style="fill:#231f20;fill-opacity:1;fill-rule:evenodd;stroke:none"
         d="m 284.523,204.348 0,3.804 49.153,0 0,-3.804 -5.211,0 c -5.457,0 -9.653,-2.278 -12.586,-6.84 -1.441,-2.125 -2.152,-7.055 -2.152,-14.758 l 0,-56.316 c 0,-13.95 -1.391,-24.746 -4.168,-32.4301 -2.754,-7.6836 -8.18,-14.2656 -16.282,-19.7695 C 285.203,68.7539 274.191,66 260.27,66 c -15.149,0 -26.661,2.625 -34.528,7.8945 -7.84,5.2422 -13.394,12.3203 -16.676,21.1836 -2.199,6.0819 -3.273,17.4879 -3.273,34.2109 l 0,54.273 c 0,8.543 -1.18,14.126 -3.539,16.801 -2.359,2.676 -6.16,3.985 -11.434,3.985 l -5.215,0 0,3.804 60.008,0 0,-3.804 -5.32,0 c -5.742,0 -9.832,-1.805 -12.297,-5.422 -1.699,-2.442 -2.543,-7.578 -2.543,-15.364 l 0,-60.507 c 0,-5.403 0.473,-11.59 1.469,-18.539 0.996,-6.973 2.781,-12.4027 5.375,-16.2816 2.598,-3.9024 6.348,-7.1055 11.223,-9.6485 4.875,-2.5156 10.878,-3.7734 17.98,-3.7734 9.074,0 17.199,1.9687 24.359,5.9492 7.184,3.961 12.059,9.0195 14.707,15.2071 2.622,6.1602 3.934,16.6212 3.934,31.3832 l 0,56.21 c 0,8.676 -0.941,14.106 -2.859,16.278 -2.676,3.015 -6.633,4.508 -11.875,4.508 l -5.243,0" /><path
         id="path318"
         style="fill:#231f20;fill-opacity:1;fill-rule:evenodd;stroke:none"
         d="m 453.301,211.32 3.199,-47.215 -3.199,0 c -4.223,14.133 -10.278,24.305 -18.117,30.52 -7.836,6.211 -17.278,9.328 -28.262,9.328 -9.231,0 -17.539,-2.332 -24.984,-7.023 -7.446,-4.664 -13.29,-12.137 -17.567,-22.364 -4.269,-10.25 -6.398,-22.988 -6.398,-38.195 0,-12.586 2.023,-23.465 6.035,-32.668 4.035,-9.2303 10.09,-16.3085 18.191,-21.2108 8.074,-4.9258 17.305,-7.3672 27.688,-7.3672 9.015,0 16.961,1.9141 23.859,5.7695 6.891,3.8516 14.469,11.5352 22.754,22.9925 l 3.172,-2.043 C 452.695,89.4922 444.57,80.4492 435.289,74.707 c -9.277,-5.7422 -20.316,-8.6015 -33.086,-8.6015 -22.992,0 -40.816,8.5195 -53.453,25.5898 -9.414,12.7147 -14.133,27.6567 -14.133,44.8597 0,13.863 3.121,26.609 9.336,38.195 6.211,11.617 14.758,20.605 25.637,27.004 10.879,6.371 22.785,9.566 35.68,9.566 10.042,0 19.953,-2.465 29.703,-7.367 2.886,-1.515 4.933,-2.254 6.16,-2.254 1.84,0 3.437,0.66 4.801,1.946 1.781,1.832 3.039,4.402 3.804,7.675 l 3.563,0" /><path
         id="path320"
         style="fill:#231f20;fill-opacity:1;fill-rule:evenodd;stroke:none"
         d="m 316.012,52.5312 c 5.386,0 9.55,-1.0156 12.472,-3.0468 2.918,-2.0274 4.387,-4.8906 4.387,-8.5899 0,-2.7578 -0.816,-5.0507 -2.433,-6.8867 -1.618,-1.8281 -3.942,-3.0859 -6.981,-3.75 l 8.555,-13.4922 c 0.847,-1.3047 1.554,-2.2031 2.14,-2.7031 0.571,-0.5 1.16,-0.7539 1.766,-0.7539 l 0,-0.9102 -11.727,0 0,0.9102 0.313,0 c 0.305,0 0.558,0.0898 0.781,0.2539 0.207,0.1641 0.313,0.375 0.313,0.6172 0,0.1172 -0.059,0.2812 -0.188,0.5 -0.078,0.1523 -0.148,0.2578 -0.172,0.3125 l -9.414,14.7187 -13.406,0 0,-13.4921 c 0,-0.875 0.141,-1.4922 0.41,-1.8399 0.277,-0.3477 0.848,-0.6289 1.731,-0.8398 l 0,-1.1407 -11.645,0 0,1.1407 c 0.91,0.2109 1.5,0.4921 1.758,0.8398 0.254,0.3477 0.383,0.9649 0.383,1.8399 l 0,32.496 c 0,0.8711 -0.129,1.4766 -0.383,1.8164 -0.258,0.3243 -0.848,0.6133 -1.758,0.8594 l 0,1.1406 23.098,0 z m 2.218,-6.2734 -15.812,0 0,-10.4922 15.812,0 c 2.735,0 4.715,0.418 5.961,1.2656 1.243,0.8516 1.86,2.1993 1.86,4.0508 0,1.7539 -0.641,3.0586 -1.93,3.9102 -1.293,0.8476 -3.246,1.2656 -5.891,1.2656" /><path
         id="path322"
         style="fill:#231f20;fill-opacity:1;fill-rule:evenodd;stroke:none"
         d="m 372.441,16.2188 c 0,-0.875 0.141,-1.4922 0.411,-1.8399 0.277,-0.3477 0.847,-0.6289 1.73,-0.8398 l 0,-1.1407 -11.644,0 0,1.1407 c 0.906,0.2109 1.5,0.4921 1.753,0.8398 0.258,0.3477 0.387,0.9649 0.387,1.8399 l 0,32.496 c 0,0.8711 -0.129,1.4766 -0.387,1.8164 -0.253,0.3243 -0.847,0.6133 -1.753,0.8594 l 0,1.1406 11.644,0 0,-1.1406 c -0.883,-0.2461 -1.453,-0.5351 -1.73,-0.8594 -0.27,-0.3398 -0.411,-0.9453 -0.411,-1.8164 l 0,-32.496" /><path
         id="path324"
         style="fill:#231f20;fill-opacity:1;fill-rule:evenodd;stroke:none"
         d="m 425.594,11.5859 c -6.727,0 -12.289,1.9883 -16.688,5.9571 -4.386,3.9648 -6.586,8.9492 -6.586,14.9492 0,6.0547 2.188,11.0664 6.551,15.0117 4.363,3.957 9.938,5.9336 16.723,5.9336 6.781,0 12.367,-1.9883 16.73,-5.957 4.364,-3.9688 6.539,-8.9571 6.539,-14.9883 0,-6 -2.187,-10.9844 -6.562,-14.9492 -4.387,-3.9688 -9.949,-5.9571 -16.707,-5.9571 z m -15.731,21 c 0,-4.6054 1.442,-8.3281 4.34,-11.1797 2.895,-2.8515 6.723,-4.2734 11.469,-4.2734 4.668,0 8.449,1.4336 11.348,4.2969 2.894,2.8594 4.339,6.5859 4.339,11.1562 0,4.5743 -1.445,8.2618 -4.316,11.0664 -2.875,2.8047 -6.703,4.1993 -11.449,4.1993 -4.735,0 -8.543,-1.3946 -11.414,-4.1993 -2.875,-2.8046 -4.317,-6.4921 -4.317,-11.0664" /></g></g></svg>